{"glyphs":{"0":{"ha":794,"x_min":69,"x_max":725,"o":"m 69 501 q 69 628 69 501 q 150 881 69 755 q 394 1007 231 1007 q 641 877 557 1007 q 725 493 725 746 q 644 113 725 239 q 399 -14 562 -14 q 153 116 236 -14 q 69 501 69 246 m 559 810 q 397 909 509 909 q 234 811 285 909 q 183 497 183 713 q 234 182 183 281 q 397 83 285 83 q 559 183 509 83 q 610 497 610 283 q 559 810 610 711 z "},"1":{"ha":794,"x_min":127,"x_max":485,"o":"m 485 0 l 375 0 l 375 707 q 380 873 375 790 q 353 847 366 859 q 187 711 340 836 l 127 789 l 390 991 l 485 991 l 485 0 z "},"2":{"ha":794,"x_min":67,"x_max":720,"o":"m 379 1006 q 598 934 519 1006 q 677 742 677 863 q 625 556 677 648 q 427 322 572 464 l 210 110 l 210 104 l 720 104 l 720 0 l 67 0 l 67 97 l 329 359 q 488 534 452 485 q 543 631 524 584 q 562 737 562 679 q 514 863 562 817 q 380 909 465 909 q 263 889 319 909 q 140 815 208 869 l 81 892 q 379 1006 218 1006 z "},"3":{"ha":794,"x_min":63,"x_max":713,"o":"m 378 1006 q 602 940 522 1006 q 682 758 682 873 q 629 603 682 664 q 478 522 576 543 l 478 517 q 654 442 596 503 q 713 281 713 382 q 614 62 713 138 q 335 -14 516 -14 q 63 40 174 -14 l 63 147 q 339 82 195 82 q 596 283 596 82 q 313 464 596 464 l 215 464 l 215 561 l 314 561 q 498 612 430 561 q 566 754 566 663 q 516 868 566 827 q 380 909 466 909 q 259 892 317 909 q 126 827 201 875 l 69 903 q 211 979 131 951 q 378 1006 291 1006 z "},"4":{"ha":794,"x_min":29,"x_max":766,"o":"m 619 330 l 766 330 l 766 228 l 619 228 l 619 0 l 511 0 l 511 228 l 29 228 l 29 326 l 500 997 l 619 997 l 619 330 m 511 330 l 511 659 q 518 879 511 763 l 513 879 q 452 771 480 814 l 142 330 l 511 330 z "},"5":{"ha":794,"x_min":90,"x_max":714,"o":"m 644 888 l 248 888 l 222 590 q 378 606 302 606 q 624 528 535 606 q 714 315 714 450 q 616 74 714 161 q 348 -14 518 -14 q 90 40 178 -14 l 90 149 q 208 100 139 117 q 347 83 277 83 q 533 140 467 83 q 599 302 599 197 q 345 510 599 510 q 172 490 282 510 l 114 528 l 151 991 l 644 991 l 644 888 z "},"6":{"ha":794,"x_min":79,"x_max":726,"o":"m 439 618 q 649 537 572 618 q 726 318 726 457 q 642 75 726 163 q 409 -14 557 -14 q 170 102 260 -14 q 79 424 79 217 q 529 1006 79 1006 q 650 993 607 1006 l 650 896 q 530 913 599 913 q 286 812 370 913 q 195 501 203 712 l 203 501 q 439 618 277 618 m 410 529 q 260 473 326 529 q 195 343 193 416 q 221 214 194 274 q 299 118 249 153 q 408 82 349 82 q 412 82 410 82 q 562 143 509 82 q 615 311 615 204 q 565 473 615 418 q 418 529 515 529 q 410 529 414 529 z "},"7":{"ha":794,"x_min":63,"x_max":724,"o":"m 63 888 l 63 991 l 724 991 l 724 901 l 318 0 l 193 0 l 604 888 l 63 888 z "},"8":{"ha":794,"x_min":71,"x_max":722,"o":"m 103 770 q 183 942 103 878 q 397 1006 263 1006 q 611 942 532 1006 q 690 768 690 879 q 644 634 690 694 q 500 525 598 574 q 671 404 622 467 q 722 257 722 341 q 636 60 722 134 q 395 -14 549 -14 q 156 56 241 -14 q 71 253 71 125 q 278 518 71 423 q 144 631 186 570 q 103 770 103 692 m 530 873 q 395 914 481 914 q 261 873 309 914 q 214 768 214 833 q 254 657 214 703 q 401 568 294 613 q 539 656 499 610 q 579 768 579 703 q 530 873 579 834 m 374 472 q 227 376 273 429 q 182 246 182 323 q 238 123 182 169 q 397 78 295 78 q 555 125 498 78 q 611 256 611 172 q 558 373 611 321 q 374 472 505 424 z "},"9":{"ha":794,"x_min":72,"x_max":720,"o":"m 358 374 q 149 452 227 374 q 72 671 72 530 q 158 917 72 827 q 386 1006 244 1006 q 393 1006 389 1006 q 630 889 540 1006 q 720 574 720 772 q 720 568 720 571 q 269 -14 720 -14 q 144 0 191 -14 l 144 97 q 268 79 199 79 q 514 180 431 79 q 604 489 597 281 l 596 489 q 498 403 559 433 q 358 374 436 374 m 386 909 q 236 847 289 909 q 183 680 183 785 q 233 519 183 574 q 380 464 283 464 q 389 464 385 464 q 540 519 475 464 q 606 644 606 574 q 606 648 606 646 q 578 779 606 719 q 500 874 551 840 q 391 909 450 909 q 386 909 388 909 z "},"\r":{"ha":361,"x_min":0,"x_max":0,"o":""}," ":{"ha":361,"x_min":0,"x_max":0,"o":""},"!":{"ha":371,"x_min":103,"x_max":267,"o":"m 221 273 l 150 273 l 115 991 l 256 991 l 221 273 m 184 164 q 245 140 224 164 q 267 73 267 117 q 245 4 267 28 q 185 -20 223 -20 q 125 3 147 -20 q 103 72 103 25 q 184 164 103 164 z "},"\"":{"ha":557,"x_min":90,"x_max":467,"o":"m 189 633 l 118 633 l 90 991 l 216 991 l 189 633 m 439 633 l 368 633 l 340 991 l 467 991 l 439 633 z "},"#":{"ha":897,"x_min":35,"x_max":861,"o":"m 861 696 l 861 610 l 665 610 l 621 379 l 812 379 l 812 292 l 604 292 l 547 0 l 454 0 l 511 292 l 306 292 l 250 0 l 158 0 l 212 292 l 35 292 l 35 379 l 229 379 l 275 610 l 87 610 l 87 696 l 290 696 l 346 991 l 440 991 l 385 696 l 591 696 l 648 991 l 739 991 l 682 696 l 861 696 m 367 610 l 322 379 l 528 379 l 572 610 l 367 610 z "},"$":{"ha":794,"x_min":89,"x_max":703,"o":"m 440 1054 l 440 932 q 681 882 564 929 l 646 793 q 440 840 543 833 l 440 546 q 598 481 545 513 q 677 406 650 449 q 703 304 703 365 q 633 152 703 212 q 440 77 564 92 l 440 -81 l 353 -81 l 353 71 q 206 82 279 71 q 89 115 134 94 l 89 221 q 218 180 143 197 q 353 164 294 164 l 353 463 q 158 564 214 506 q 102 713 102 623 q 170 861 102 804 q 353 930 239 918 l 353 1054 l 440 1054 m 353 838 q 251 795 286 827 q 216 715 216 764 q 247 634 216 666 q 353 575 277 602 l 353 838 m 587 296 q 557 375 587 345 q 440 435 527 405 l 440 171 q 587 296 587 191 z "},"%":{"ha":1143,"x_min":71,"x_max":1072,"o":"m 271 1006 q 422 925 369 1006 q 475 693 475 844 q 423 462 475 541 q 273 383 371 383 q 123 464 175 383 q 71 696 71 545 q 271 1006 71 1006 m 347 0 l 248 0 l 798 991 l 897 991 l 347 0 m 271 925 q 190 869 215 925 q 164 696 164 813 q 190 522 164 578 q 271 465 215 465 q 382 695 382 465 q 271 925 382 925 m 667 300 q 667 376 667 300 q 718 530 667 452 q 867 608 769 608 q 1019 528 965 608 q 1072 296 1072 448 q 1020 65 1072 144 q 870 -14 968 -14 q 720 67 772 -14 q 667 300 667 148 m 979 297 q 979 356 979 297 q 952 470 979 414 q 868 526 925 526 q 786 471 812 526 q 761 298 761 416 q 786 124 761 180 q 868 67 812 67 q 952 124 925 67 q 979 297 979 180 z "},"&":{"ha":1014,"x_min":77,"x_max":1011,"o":"m 383 -14 q 157 58 237 -14 q 77 257 77 130 q 123 413 77 345 q 293 550 171 481 q 216 646 237 612 q 170 791 170 718 q 236 950 170 893 q 417 1007 302 1007 q 594 951 531 1007 q 656 793 656 895 q 611 658 656 720 q 458 534 565 597 l 734 269 q 833 492 798 339 l 947 492 q 808 197 902 299 l 1011 0 l 856 0 l 730 121 q 568 18 650 49 q 383 -14 486 -14 m 545 795 q 545 822 545 795 q 510 882 545 849 q 415 914 475 914 q 318 882 355 914 q 281 798 281 849 q 304 706 281 747 q 389 603 328 665 q 511 698 478 655 q 545 795 545 741 m 245 134 q 386 87 299 87 q 656 192 550 87 l 361 479 q 256 404 288 435 q 193 262 193 345 q 245 134 193 180 z "},"'":{"ha":307,"x_min":90,"x_max":216,"o":"m 189 633 l 118 633 l 90 991 l 216 991 l 189 633 z "},"(":{"ha":411,"x_min":56,"x_max":370,"o":"m 370 991 q 223 706 273 862 q 174 385 174 549 q 224 65 174 221 q 368 -220 274 -92 l 260 -220 q 108 50 160 -104 q 56 382 56 203 q 108 717 56 560 q 260 991 161 873 l 370 991 z "},")":{"ha":411,"x_min":41,"x_max":355,"o":"m 151 991 q 303 714 252 871 q 355 380 355 557 q 303 48 355 202 q 151 -220 251 -105 l 43 -220 q 187 64 137 -93 q 237 385 237 220 q 188 706 237 549 q 41 991 138 862 l 151 991 z "},"*":{"ha":766,"x_min":58,"x_max":704,"o":"m 416 787 l 686 863 l 704 739 l 446 718 l 614 497 l 497 433 l 378 679 l 269 433 l 150 497 l 314 718 l 58 739 l 78 863 l 343 787 l 314 1055 l 446 1055 l 416 787 z "},"+":{"ha":794,"x_min":71,"x_max":722,"o":"m 443 536 l 722 536 l 722 443 l 443 443 l 443 154 l 349 154 l 349 443 l 71 443 l 71 536 l 349 536 l 349 827 l 443 827 l 443 536 z "},",":{"ha":340,"x_min":43,"x_max":248,"o":"m 237 161 l 248 146 q 197 -11 231 79 q 127 -179 163 -100 l 43 -179 q 83 -5 62 -104 q 114 161 104 90 l 237 161 z "},"-":{"ha":447,"x_min":57,"x_max":390,"o":"m 390 321 l 57 321 l 57 424 l 390 424 l 390 321 z "},".":{"ha":370,"x_min":103,"x_max":267,"o":"m 103 71 q 103 94 103 71 q 124 140 103 117 q 183 164 144 164 q 244 140 222 164 q 267 72 267 117 q 244 4 267 28 q 184 -20 222 -20 q 125 3 146 -20 q 103 71 103 25 z "},"/":{"ha":510,"x_min":14,"x_max":496,"o":"m 126 0 l 14 0 l 383 991 l 496 991 l 126 0 z "},":":{"ha":370,"x_min":103,"x_max":267,"o":"m 183 762 q 267 670 267 762 q 244 603 267 627 q 184 579 222 579 q 125 602 146 579 q 103 670 103 624 q 183 762 103 762 m 103 71 q 103 94 103 71 q 124 140 103 117 q 183 164 144 164 q 244 140 222 164 q 267 72 267 117 q 244 4 267 28 q 184 -20 222 -20 q 125 3 146 -20 q 103 71 103 25 z "},";":{"ha":370,"x_min":43,"x_max":264,"o":"m 180 762 q 264 670 264 762 q 242 603 264 627 q 180 579 220 579 q 120 603 141 579 q 100 670 100 626 q 180 762 100 762 m 237 161 l 248 146 q 197 -11 231 79 q 127 -179 163 -100 l 43 -179 q 83 -5 62 -104 q 114 161 104 90 l 237 161 z "},"<":{"ha":794,"x_min":71,"x_max":722,"o":"m 722 741 l 192 489 l 722 267 l 722 164 l 71 450 l 71 517 l 722 842 l 722 741 z "},"=":{"ha":794,"x_min":81,"x_max":711,"o":"m 711 582 l 81 582 l 81 674 l 711 674 l 711 582 m 711 304 l 81 304 l 81 397 l 711 397 l 711 304 z "},">":{"ha":794,"x_min":71,"x_max":722,"o":"m 722 517 l 722 450 l 71 164 l 71 267 l 602 488 l 71 741 l 71 842 l 722 517 z "},"?":{"ha":596,"x_min":18,"x_max":559,"o":"m 18 939 q 281 1006 146 1006 q 488 942 416 1006 q 559 762 559 878 q 507 604 559 672 q 396 496 482 571 q 306 398 328 437 q 283 296 283 359 l 283 273 l 196 273 l 196 310 q 220 440 196 389 q 311 549 244 491 q 428 667 404 627 q 452 761 452 706 q 407 868 452 830 q 279 905 363 905 q 174 893 224 905 q 58 847 123 880 l 18 939 m 244 164 q 305 140 283 164 q 326 73 326 117 q 304 4 326 28 q 245 -20 283 -20 q 185 3 207 -20 q 163 72 163 25 q 244 164 163 164 z "},"@":{"ha":1249,"x_min":82,"x_max":1166,"o":"m 600 -126 q 218 9 353 -126 q 82 387 82 144 q 155 701 82 564 q 361 914 227 839 q 669 990 495 990 q 928 928 816 990 q 1104 754 1042 868 q 1166 494 1166 641 q 1137 319 1166 399 q 1053 194 1107 239 q 933 150 998 150 q 829 186 869 150 q 782 275 789 222 l 777 275 q 698 183 749 216 q 579 150 647 150 q 420 219 477 150 q 363 408 363 289 q 443 633 363 547 q 653 720 524 720 q 760 711 702 720 q 863 688 818 702 l 846 369 l 846 354 q 936 233 846 233 q 1036 306 998 233 q 1075 496 1075 379 q 1075 502 1075 499 q 1024 711 1075 619 q 882 853 974 803 q 675 903 791 903 q 668 903 672 903 q 660 903 664 903 q 406 840 517 903 q 235 662 294 777 q 176 399 176 547 q 176 392 176 395 q 286 74 176 185 q 600 -37 395 -37 q 896 21 741 -37 l 896 -69 q 600 -126 766 -126 m 653 636 q 515 575 565 636 q 465 406 465 514 q 597 233 465 233 q 750 446 738 233 l 760 623 q 653 636 709 636 z "},"A":{"ha":879,"x_min":0,"x_max":879,"o":"m 879 0 l 760 0 l 636 315 l 239 315 l 117 0 l 0 0 l 392 996 l 489 996 l 879 0 m 600 419 l 485 726 q 439 869 462 786 q 396 726 424 806 l 279 419 l 600 419 z "},"B":{"ha":900,"x_min":136,"x_max":823,"o":"m 136 991 l 416 991 q 702 932 613 991 q 790 746 790 873 q 741 600 790 657 q 597 526 691 543 l 597 519 q 823 282 823 481 q 733 74 823 149 q 482 0 642 0 l 136 0 l 136 991 m 252 892 l 252 567 l 441 567 q 617 605 563 567 q 670 730 670 643 q 611 855 670 818 q 421 892 552 892 l 252 892 m 252 469 l 252 98 l 458 98 q 640 145 580 98 q 700 287 700 192 q 638 426 700 382 q 449 469 576 469 l 252 469 z "},"C":{"ha":876,"x_min":85,"x_max":835,"o":"m 542 -14 q 203 119 322 -14 q 85 497 85 252 q 85 504 85 500 q 142 766 85 652 q 308 943 199 881 q 556 1006 416 1006 q 562 1006 559 1006 q 835 949 718 1006 l 786 850 q 561 903 673 903 q 303 794 397 903 q 208 493 208 685 q 299 195 208 302 q 559 89 391 89 q 796 126 664 89 l 796 25 q 542 -14 690 -14 z "},"D":{"ha":1013,"x_min":136,"x_max":928,"o":"m 136 991 l 440 991 q 800 863 671 991 q 928 505 928 735 q 794 130 928 260 q 411 0 661 0 l 136 0 l 136 991 m 252 892 l 252 100 l 392 100 q 702 201 597 100 q 806 499 806 302 q 708 793 806 695 q 419 892 610 892 l 252 892 z "},"E":{"ha":772,"x_min":136,"x_max":689,"o":"m 689 889 l 252 889 l 252 570 l 662 570 l 662 468 l 252 468 l 252 103 l 689 103 l 689 0 l 136 0 l 136 991 l 689 991 l 689 889 z "},"F":{"ha":717,"x_min":136,"x_max":689,"o":"m 689 889 l 252 889 l 252 526 l 662 526 l 662 424 l 252 424 l 252 0 l 136 0 l 136 991 l 689 991 l 689 889 z "},"G":{"ha":1011,"x_min":85,"x_max":909,"o":"m 909 37 q 561 -14 751 -14 q 210 120 336 -14 q 85 496 85 255 q 146 767 85 651 q 325 944 208 883 q 599 1006 442 1006 q 895 947 756 1006 l 850 846 q 591 903 715 903 q 309 795 410 903 q 207 491 207 687 q 305 191 207 295 q 593 87 403 87 q 794 111 694 87 l 794 416 l 572 416 l 572 519 l 909 519 l 909 37 z "},"H":{"ha":1025,"x_min":136,"x_max":889,"o":"m 889 0 l 774 0 l 774 467 l 252 467 l 252 0 l 136 0 l 136 991 l 252 991 l 252 570 l 774 570 l 774 991 l 889 991 l 889 0 z "},"I":{"ha":387,"x_min":136,"x_max":252,"o":"m 252 0 l 136 0 l 136 991 l 252 991 l 252 0 z "},"J":{"ha":371,"x_min":-109,"x_max":244,"o":"m 244 991 l 244 9 q 179 -191 244 -120 q -8 -261 113 -261 q -109 -243 -72 -261 l -109 -144 q -8 -158 -60 -158 q 94 -117 59 -158 q 129 0 129 -77 l 129 991 l 244 991 z "},"K":{"ha":852,"x_min":136,"x_max":852,"o":"m 252 0 l 136 0 l 136 991 l 252 991 l 252 500 l 701 991 l 838 991 l 439 561 l 852 0 l 717 0 l 355 481 l 252 389 l 252 0 z "},"L":{"ha":721,"x_min":136,"x_max":689,"o":"m 252 104 l 689 104 l 689 0 l 136 0 l 136 991 l 252 991 l 252 104 z "},"M":{"ha":1254,"x_min":136,"x_max":1118,"o":"m 1118 0 l 1003 0 l 1003 639 q 1013 878 1003 743 l 1007 878 l 667 0 l 575 0 l 239 879 l 233 879 q 243 631 243 770 l 243 0 l 136 0 l 136 991 l 310 991 l 624 174 l 629 174 l 946 991 l 1118 991 l 1118 0 z "},"N":{"ha":1047,"x_min":136,"x_max":911,"o":"m 911 0 l 779 0 l 237 832 l 232 832 q 243 564 243 690 l 243 0 l 136 0 l 136 991 l 267 991 l 807 163 l 812 163 l 806 280 q 803 381 803 351 q 803 422 803 411 l 803 991 l 911 991 l 911 0 z "},"O":{"ha":1082,"x_min":85,"x_max":997,"o":"m 85 497 q 85 618 85 497 q 204 873 85 740 q 540 1007 323 1007 q 877 871 757 1007 q 997 497 997 736 q 877 122 997 258 q 539 -14 756 -14 q 203 120 323 -14 q 85 497 85 254 m 875 496 q 875 597 875 496 q 791 801 875 697 q 543 904 707 904 q 293 800 378 904 q 207 496 207 696 q 293 192 207 296 q 543 87 378 87 q 791 191 707 87 q 875 496 875 295 z "},"P":{"ha":836,"x_min":136,"x_max":765,"o":"m 136 991 l 393 991 q 765 703 765 991 q 662 471 765 552 q 368 390 559 390 l 252 390 l 252 0 l 136 0 l 136 991 m 252 892 l 252 489 l 355 489 q 577 539 509 489 q 646 692 646 589 q 581 844 646 795 q 380 892 516 892 l 252 892 z "},"Q":{"ha":1082,"x_min":85,"x_max":997,"o":"m 203 120 q 85 497 85 254 q 204 873 85 740 q 540 1007 323 1007 q 877 871 757 1007 q 997 497 997 736 q 921 181 997 307 q 704 9 844 54 l 940 -236 l 772 -236 l 579 -12 l 542 -14 q 203 120 323 -14 m 875 496 q 875 597 875 496 q 791 801 875 697 q 543 904 707 904 q 293 800 378 904 q 207 496 207 696 q 293 192 207 296 q 543 87 378 87 q 791 191 707 87 q 875 496 875 295 z "},"R":{"ha":859,"x_min":136,"x_max":835,"o":"m 136 991 l 408 991 q 677 922 590 991 q 765 711 765 852 q 566 446 765 515 l 835 0 l 699 0 l 458 412 l 252 412 l 252 0 l 136 0 l 136 991 m 252 890 l 252 511 l 410 511 q 588 559 531 511 q 646 705 646 608 q 588 847 646 803 q 401 890 530 890 l 252 890 z "},"S":{"ha":762,"x_min":72,"x_max":696,"o":"m 347 87 q 520 131 461 87 q 579 253 579 174 q 558 337 579 304 q 490 398 538 370 q 342 461 442 425 q 144 579 203 511 q 85 759 85 647 q 171 938 85 870 q 401 1006 257 1006 q 670 951 546 1006 l 635 851 q 396 903 513 903 q 253 863 304 903 q 201 754 201 824 q 220 670 201 703 q 283 610 239 637 q 422 549 327 583 q 638 428 580 492 q 696 264 696 364 q 601 60 696 134 q 336 -14 506 -14 q 72 32 165 -14 l 72 143 q 347 87 203 87 z "},"T":{"ha":768,"x_min":12,"x_max":755,"o":"m 755 889 l 441 889 l 441 0 l 326 0 l 326 889 l 12 889 l 12 991 l 755 991 l 755 889 z "},"U":{"ha":1011,"x_min":126,"x_max":885,"o":"m 885 991 l 885 350 q 782 83 885 180 q 501 -14 680 -14 q 224 84 323 -14 q 126 353 126 182 l 126 991 l 241 991 l 241 345 q 310 154 241 220 q 506 87 378 87 q 702 155 634 87 q 770 346 770 222 l 770 991 l 885 991 z "},"V":{"ha":827,"x_min":0,"x_max":827,"o":"m 469 0 l 355 0 l 0 991 l 122 991 l 350 350 q 412 135 388 243 q 476 354 437 248 l 703 991 l 827 991 l 469 0 z "},"W":{"ha":1286,"x_min":18,"x_max":1267,"o":"m 1002 0 l 888 0 l 688 663 q 655 777 671 711 q 637 856 639 842 q 590 659 622 765 l 396 0 l 282 0 l 18 991 l 140 991 l 297 379 q 345 146 329 252 q 399 389 362 267 l 576 991 l 699 991 l 885 383 q 940 146 918 279 q 989 380 953 241 l 1145 991 l 1267 991 l 1002 0 z "},"X":{"ha":802,"x_min":5,"x_max":796,"o":"m 465 522 l 796 0 l 665 0 l 399 436 l 127 0 l 5 0 l 335 518 l 28 991 l 155 991 l 401 599 l 650 991 l 772 991 l 465 522 z "},"Y":{"ha":778,"x_min":0,"x_max":778,"o":"m 447 0 l 330 0 l 330 379 l 0 991 l 126 991 l 389 496 l 653 991 l 778 991 l 447 385 l 447 0 z "},"Z":{"ha":793,"x_min":56,"x_max":737,"o":"m 737 104 l 737 0 l 56 0 l 56 90 l 582 888 l 72 888 l 72 991 l 722 991 l 722 901 l 196 104 l 737 104 z "},"[":{"ha":457,"x_min":113,"x_max":422,"o":"m 422 896 l 227 896 l 227 -123 l 422 -123 l 422 -220 l 113 -220 l 113 991 l 422 991 l 422 896 z "},"\\":{"ha":510,"x_min":16,"x_max":497,"o":"m 497 0 l 385 0 l 16 991 l 126 991 l 497 0 z "},"]":{"ha":457,"x_min":35,"x_max":345,"o":"m 345 -220 l 35 -220 l 35 -123 l 231 -123 l 231 896 l 35 896 l 35 991 l 345 991 l 345 -220 z "},"^":{"ha":753,"x_min":33,"x_max":718,"o":"m 718 374 l 615 374 l 363 879 l 136 374 l 33 374 l 328 999 l 395 999 l 718 374 z "},"_":{"ha":623,"x_min":-3,"x_max":625,"o":"m 625 -214 l -3 -214 l -3 -125 l 625 -125 l 625 -214 z "},"`":{"ha":802,"x_min":267,"x_max":533,"o":"m 267 1064 l 404 1064 q 465 956 426 1017 q 533 859 503 895 l 533 842 l 458 842 q 353 942 414 877 q 267 1050 293 1008 l 267 1064 z "},"a":{"ha":772,"x_min":63,"x_max":659,"o":"m 147 692 q 398 755 264 755 q 596 696 532 755 q 659 507 659 637 l 659 0 l 576 0 l 554 106 l 549 106 q 438 11 493 36 q 300 -14 382 -14 q 126 44 189 -14 q 63 205 63 101 q 424 441 63 430 l 550 446 l 550 492 q 512 621 550 580 q 386 662 475 662 q 182 606 297 662 l 147 692 m 182 204 q 218 112 182 144 q 322 79 255 79 q 487 137 427 79 q 547 298 547 195 l 547 366 l 435 361 q 241 319 300 356 q 182 204 182 282 z "},"b":{"ha":851,"x_min":119,"x_max":774,"o":"m 232 1055 l 232 799 q 227 644 232 717 l 232 644 q 461 755 311 755 q 692 655 612 755 q 774 372 774 555 q 692 87 774 189 q 461 -14 610 -14 q 232 96 312 -14 l 224 96 l 200 0 l 119 0 l 119 1055 l 232 1055 m 656 374 q 656 447 656 374 q 606 590 656 519 q 444 661 555 661 q 283 595 334 661 q 232 373 232 529 q 284 148 232 216 q 452 81 336 81 q 605 155 554 81 q 656 374 656 230 z "},"c":{"ha":661,"x_min":78,"x_max":615,"o":"m 416 -14 q 166 85 255 -14 q 78 369 78 184 q 168 655 78 553 q 424 757 258 757 q 529 746 475 757 q 615 718 582 734 l 581 623 q 500 647 543 637 q 421 656 458 656 q 195 368 195 656 q 250 158 195 231 q 414 85 306 85 q 604 125 506 85 l 604 25 q 416 -14 528 -14 z "},"d":{"ha":851,"x_min":78,"x_max":732,"o":"m 732 0 l 640 0 l 625 100 l 619 100 q 390 -14 541 -14 q 159 86 240 -14 q 78 370 78 186 q 159 655 78 553 q 389 757 241 757 q 618 647 537 757 l 627 647 l 622 701 l 619 753 l 619 1055 l 732 1055 l 732 0 m 619 346 l 619 370 q 566 595 619 528 q 399 662 515 662 q 247 586 300 662 q 195 368 195 509 q 247 153 195 226 q 400 81 299 81 q 567 143 515 81 q 619 346 619 206 z "},"e":{"ha":779,"x_min":78,"x_max":707,"o":"m 433 -14 q 173 87 269 -14 q 78 367 78 188 q 166 651 78 546 q 400 757 255 757 q 625 664 545 757 q 707 422 707 574 l 707 351 l 195 351 q 260 153 198 221 q 440 85 323 85 q 674 135 557 85 l 674 35 q 561 -2 615 9 q 433 -14 507 -14 m 586 443 q 538 605 586 549 q 402 662 491 662 q 260 604 314 662 q 197 443 207 547 l 586 443 z "},"f":{"ha":471,"x_min":20,"x_max":530,"o":"m 153 789 q 392 1063 153 1063 q 530 1039 450 1063 l 501 949 q 390 970 437 970 q 296 927 326 970 q 265 791 265 884 l 265 743 l 454 743 l 454 656 l 265 656 l 265 0 l 153 0 l 153 656 l 20 656 l 20 707 l 153 747 l 153 789 z "},"g":{"ha":761,"x_min":26,"x_max":728,"o":"m 336 118 l 468 118 q 653 67 589 118 q 718 -81 718 16 q 619 -269 718 -204 q 330 -334 520 -334 q 105 -279 184 -334 q 26 -126 26 -225 q 70 -9 26 -58 q 192 58 114 41 q 143 99 162 72 q 125 164 125 126 q 146 232 125 201 q 215 292 168 263 q 121 372 158 315 q 85 503 85 430 q 158 690 85 624 q 366 757 231 757 q 471 743 422 757 l 728 743 l 728 671 l 590 656 q 639 507 639 594 q 564 333 639 398 q 359 268 490 268 q 297 273 328 268 q 225 178 225 236 q 251 132 225 146 q 336 118 277 118 m 361 674 q 238 631 281 674 q 196 508 196 589 q 240 388 196 428 q 363 347 283 347 q 528 507 528 347 q 361 674 528 674 m 432 17 l 297 17 q 177 -20 220 17 q 135 -121 135 -56 q 332 -248 135 -248 q 540 -206 471 -248 q 610 -90 610 -165 q 572 -6 610 -29 q 432 17 535 17 z "},"h":{"ha":852,"x_min":119,"x_max":741,"o":"m 232 1055 l 232 736 q 227 640 232 680 l 233 640 q 328 725 267 694 q 468 755 390 755 q 673 690 606 755 q 741 485 741 624 l 741 0 l 628 0 l 628 481 q 586 616 628 572 q 457 661 545 661 q 285 597 338 661 q 232 389 232 534 l 232 0 l 119 0 l 119 1055 l 232 1055 z "},"i":{"ha":351,"x_min":110,"x_max":243,"o":"m 110 945 q 110 964 110 945 q 128 1001 110 982 q 176 1019 146 1019 q 224 1000 205 1019 q 243 945 243 981 q 224 889 243 908 q 176 869 205 869 q 128 889 146 869 q 110 945 110 908 m 232 0 l 119 0 l 119 743 l 232 743 l 232 0 z "},"j":{"ha":351,"x_min":-75,"x_max":243,"o":"m 110 945 q 110 964 110 945 q 128 1001 110 982 q 176 1019 146 1019 q 224 1000 205 1019 q 243 945 243 981 q 224 889 243 908 q 176 869 205 869 q 128 889 146 869 q 110 945 110 908 m 232 743 l 232 -114 q 29 -334 232 -334 q -75 -317 -37 -334 l -75 -225 q 22 -239 -27 -239 q 119 -122 119 -239 l 119 743 l 232 743 z "},"k":{"ha":729,"x_min":119,"x_max":714,"o":"m 231 1055 l 231 496 q 225 380 231 464 l 231 380 q 319 489 262 424 l 559 743 l 693 743 l 392 427 l 714 0 l 578 0 l 315 351 l 231 278 l 231 0 l 119 0 l 119 1055 l 231 1055 z "},"l":{"ha":351,"x_min":119,"x_max":232,"o":"m 232 0 l 119 0 l 119 1055 l 232 1055 l 232 0 z "},"m":{"ha":1292,"x_min":119,"x_max":1179,"o":"m 928 757 q 1117 691 1055 757 q 1179 485 1179 625 l 1179 0 l 1067 0 l 1067 484 q 1028 617 1067 573 q 911 661 990 661 q 755 601 806 661 q 705 415 705 541 l 705 0 l 593 0 l 593 484 q 554 617 593 573 q 436 661 516 661 q 281 597 330 661 q 232 390 232 534 l 232 0 l 119 0 l 119 743 l 211 743 l 229 642 l 235 642 q 325 726 267 696 q 454 757 382 757 q 682 631 628 757 l 688 631 q 784 723 721 690 q 928 757 848 757 z "},"n":{"ha":852,"x_min":119,"x_max":741,"o":"m 471 757 q 673 691 606 757 q 741 485 741 625 l 741 0 l 628 0 l 628 481 q 586 616 628 572 q 457 661 545 661 q 286 597 340 661 q 232 390 232 534 l 232 0 l 119 0 l 119 743 l 211 743 l 229 642 l 235 642 q 331 727 269 696 q 471 757 393 757 z "},"o":{"ha":839,"x_min":78,"x_max":761,"o":"m 78 372 q 169 655 78 554 q 418 757 259 757 q 668 653 577 757 q 761 370 761 550 q 669 89 761 191 q 416 -14 578 -14 q 411 -14 414 -14 q 171 91 264 -14 q 78 363 78 195 q 78 372 78 368 m 418 661 q 195 372 195 661 q 252 155 195 230 q 419 81 309 81 q 587 155 530 81 q 644 372 644 229 q 587 587 644 514 q 418 661 530 661 z "},"p":{"ha":851,"x_min":119,"x_max":774,"o":"m 232 642 q 463 757 313 757 q 693 656 612 757 q 774 372 774 555 q 692 87 774 189 q 461 -14 610 -14 q 232 96 312 -14 l 224 96 q 232 -28 232 31 l 232 -334 l 119 -334 l 119 743 l 211 743 l 227 642 l 232 642 m 232 372 q 284 148 232 216 q 452 81 336 81 q 603 158 549 81 q 656 374 656 236 q 603 586 656 512 q 449 661 549 661 q 283 597 334 661 q 232 397 233 534 l 232 372 z "},"q":{"ha":851,"x_min":78,"x_max":732,"o":"m 383 -14 q 159 87 239 -14 q 78 370 78 189 q 159 654 78 552 q 389 757 241 757 q 621 642 538 757 l 627 642 l 643 743 l 732 743 l 732 -334 l 619 -334 l 619 -16 q 627 100 619 49 l 618 100 q 383 -14 539 -14 m 619 370 q 566 594 619 526 q 399 662 513 662 q 247 586 300 662 q 195 368 195 509 q 247 154 195 227 q 400 81 299 81 q 564 141 512 81 q 619 345 616 201 l 619 370 z "},"r":{"ha":567,"x_min":119,"x_max":547,"o":"m 458 757 q 547 749 507 757 l 532 644 q 450 654 486 654 q 296 582 359 654 q 232 399 232 509 l 232 0 l 119 0 l 119 743 l 212 743 l 225 606 l 231 606 q 331 718 272 679 q 458 757 389 757 z "},"s":{"ha":662,"x_min":72,"x_max":599,"o":"m 307 79 q 490 193 490 79 q 453 268 490 237 q 306 340 415 298 q 158 408 201 379 q 93 473 114 437 q 72 561 72 509 q 146 704 72 651 q 344 757 220 757 q 583 708 468 757 l 543 616 q 347 662 432 662 q 220 637 262 662 q 179 568 179 613 q 194 517 179 538 q 243 477 209 496 q 374 422 277 458 q 552 326 506 374 q 599 203 599 277 q 521 43 599 99 q 300 -14 444 -14 q 74 33 157 -14 l 74 138 q 307 79 189 79 z "},"t":{"ha":490,"x_min":21,"x_max":461,"o":"m 240 743 l 456 743 l 456 656 l 240 656 l 240 218 q 272 116 240 152 q 358 79 303 79 q 461 93 413 79 l 461 6 q 408 -8 445 -2 q 343 -14 372 -14 q 127 214 127 -14 l 127 656 l 21 656 l 21 710 l 127 757 l 175 916 l 240 916 l 240 743 z "},"u":{"ha":852,"x_min":111,"x_max":733,"o":"m 733 0 l 640 0 l 624 100 l 618 100 q 522 16 583 45 q 382 -14 461 -14 q 178 51 244 -14 q 111 257 111 116 l 111 743 l 225 743 l 225 261 q 267 125 225 170 q 396 81 309 81 q 567 145 513 81 q 621 353 621 209 l 621 743 l 733 743 l 733 0 z "},"v":{"ha":696,"x_min":0,"x_max":696,"o":"m 414 0 l 282 0 l 0 743 l 121 743 l 281 302 q 345 102 336 144 l 350 102 q 395 247 357 137 q 575 743 434 356 l 696 743 l 414 0 z "},"w":{"ha":1080,"x_min":16,"x_max":1065,"o":"m 860 0 l 726 0 l 590 436 q 542 618 581 465 l 536 618 q 489 435 508 495 l 349 0 l 218 0 l 16 743 l 134 743 q 243 317 215 430 q 286 119 281 166 l 292 119 q 316 220 298 154 q 345 317 334 286 l 481 743 l 603 743 l 736 317 q 787 121 775 195 l 793 121 q 806 188 796 145 q 949 743 815 230 l 1065 743 l 860 0 z "},"x":{"ha":728,"x_min":26,"x_max":700,"o":"m 428 380 l 700 0 l 572 0 l 364 301 l 154 0 l 26 0 l 298 380 l 40 743 l 168 743 l 364 458 l 559 743 l 686 743 l 428 380 z "},"y":{"ha":700,"x_min":1,"x_max":699,"o":"m 113 -334 q 11 -322 62 -334 l 11 -232 q 94 -240 49 -240 q 260 -110 210 -240 l 301 -4 l 1 743 l 122 743 l 285 319 q 351 110 337 178 l 357 110 q 391 219 366 144 q 578 743 415 293 l 699 743 l 379 -103 q 268 -281 330 -230 q 113 -334 205 -334 z "},"z":{"ha":650,"x_min":56,"x_max":595,"o":"m 595 87 l 595 0 l 56 0 l 56 77 l 461 656 l 81 656 l 81 743 l 585 743 l 585 656 l 184 87 l 595 87 z "},"{":{"ha":526,"x_min":41,"x_max":478,"o":"m 478 991 l 478 897 q 322 762 322 893 l 322 562 q 171 390 322 416 l 171 382 q 322 210 322 355 l 322 8 q 361 -92 322 -60 q 478 -125 399 -123 l 478 -220 q 279 -161 349 -218 q 208 1 208 -103 l 208 207 q 166 307 208 276 q 41 338 125 338 l 41 433 q 169 466 129 435 q 208 562 208 496 l 208 770 q 281 933 208 875 q 478 991 355 991 z "},"|":{"ha":765,"x_min":335,"x_max":431,"o":"m 431 -336 l 335 -336 l 335 1055 l 431 1055 l 431 -336 z "},"}":{"ha":526,"x_min":49,"x_max":485,"o":"m 49 991 q 245 932 174 991 q 317 770 317 873 l 317 562 q 357 466 317 496 q 485 433 397 435 l 485 338 q 358 307 400 338 q 317 207 317 276 l 317 1 q 247 -160 317 -102 q 49 -220 177 -218 l 49 -125 q 164 -92 126 -123 q 203 8 203 -60 l 203 210 q 239 327 203 286 q 354 382 276 368 l 354 390 q 203 562 203 416 l 203 762 q 49 897 203 893 l 49 991 z "},"~":{"ha":794,"x_min":71,"x_max":722,"o":"m 722 476 q 562 401 652 401 q 374 446 472 401 q 291 476 321 468 q 228 484 262 484 q 151 461 193 484 q 71 401 108 439 l 71 504 q 236 578 138 578 q 318 569 281 578 q 432 528 356 559 q 562 496 508 496 q 643 518 600 496 q 722 578 686 540 l 722 476 z "},"¡":{"ha":371,"x_min":103,"x_max":267,"o":"m 103 666 q 103 688 103 666 q 124 734 103 709 q 183 758 146 758 q 244 735 221 758 q 267 666 267 713 q 184 575 267 575 q 124 599 144 575 q 103 666 103 623 m 254 -253 l 114 -253 l 149 464 l 220 464 l 254 -253 z "},"¢":{"ha":794,"x_min":129,"x_max":669,"o":"m 489 1006 l 489 895 q 669 854 595 890 l 636 760 q 472 794 545 794 q 301 723 356 794 q 245 506 245 652 q 299 291 245 360 q 467 222 353 222 q 658 262 562 222 l 658 163 q 488 122 588 126 l 488 -14 l 397 -14 l 397 126 q 194 240 260 148 q 129 503 129 333 q 397 889 129 848 l 397 1006 l 489 1006 z "},"£":{"ha":794,"x_min":43,"x_max":741,"o":"m 182 530 l 182 745 q 258 935 182 865 q 463 1004 334 1004 q 707 947 591 1004 l 665 857 q 470 909 560 909 q 337 867 379 909 q 296 730 296 824 l 296 530 l 582 530 l 582 444 l 296 444 l 296 294 q 273 180 296 226 q 201 104 251 134 l 741 104 l 741 0 l 43 0 l 43 96 q 182 293 182 127 l 182 444 l 47 444 l 47 530 l 182 530 z "},"¥":{"ha":794,"x_min":21,"x_max":771,"o":"m 666 469 l 666 383 l 452 383 l 452 268 l 666 268 l 666 182 l 452 182 l 452 0 l 340 0 l 340 182 l 126 182 l 126 268 l 340 268 l 340 383 l 126 383 l 126 469 l 300 469 l 21 991 l 142 991 l 396 498 l 653 991 l 771 991 l 489 469 l 666 469 z "},"¦":{"ha":765,"x_min":335,"x_max":431,"o":"m 431 529 l 335 529 l 335 1055 l 431 1055 l 431 529 m 431 -336 l 335 -336 l 335 191 l 431 191 l 431 -336 z "},"§":{"ha":717,"x_min":83,"x_max":623,"o":"m 323 83 q 462 109 414 83 q 510 183 510 135 q 494 233 510 214 q 441 273 479 253 q 317 325 404 293 q 184 388 230 357 q 117 457 139 418 q 94 551 94 496 q 123 653 94 607 q 205 725 153 700 q 125 792 153 753 q 98 885 98 830 q 169 1015 98 968 q 372 1061 240 1061 q 489 1052 436 1061 q 610 1015 542 1042 l 574 926 q 462 962 510 952 q 364 971 414 971 q 207 888 207 971 q 248 819 207 847 q 405 749 289 791 q 572 655 521 707 q 623 532 623 604 q 595 423 623 471 q 517 347 568 375 q 621 195 621 292 q 542 46 621 98 q 316 -5 463 -5 q 83 39 170 -5 l 83 139 q 201 98 136 113 q 323 83 267 83 m 522 514 q 473 608 522 570 q 297 685 424 645 q 222 638 251 671 q 193 562 193 605 q 237 475 193 510 q 396 397 281 440 l 429 385 q 522 514 522 439 z "},"¨":{"ha":802,"x_min":210,"x_max":591,"o":"m 210 945 q 210 961 210 945 q 227 995 210 978 q 271 1011 243 1011 q 316 995 298 1011 q 334 945 334 978 q 316 895 334 912 q 271 878 298 878 q 227 895 244 878 q 210 945 210 912 m 485 995 q 493 1003 485 995 q 529 1011 502 1011 q 574 995 556 1011 q 591 945 591 978 q 573 895 591 912 q 529 878 555 878 q 485 895 503 878 q 468 945 468 912 q 485 995 468 978 z "},"©":{"ha":1156,"x_min":67,"x_max":1088,"o":"m 578 -14 q 508 -14 578 -14 q 319 56 437 -14 q 134 244 200 126 q 67 495 67 361 q 136 749 67 629 q 323 938 204 869 q 577 1006 441 1006 q 832 938 713 1006 q 1020 750 951 869 q 1088 496 1088 631 q 1021 244 1088 361 q 837 56 955 126 q 578 -14 718 -14 m 798 875 q 578 935 697 935 q 359 876 460 935 q 198 715 258 817 q 139 496 139 614 q 198 276 139 378 q 359 115 257 174 q 579 57 462 57 q 797 116 696 57 q 957 275 899 176 q 1017 495 1017 376 q 958 715 1017 614 q 798 875 899 816 m 599 186 q 396 268 467 186 q 326 493 326 350 q 401 721 326 636 q 606 804 476 804 q 772 764 692 804 l 733 684 q 606 718 660 718 q 475 660 522 718 q 429 491 429 601 q 472 327 429 382 q 604 272 515 272 q 747 302 663 272 l 747 218 q 599 186 670 186 z "},"«":{"ha":690,"x_min":56,"x_max":636,"o":"m 368 603 l 172 366 l 368 127 l 288 79 l 56 355 l 56 374 l 288 650 l 368 603 m 636 603 l 441 366 l 636 127 l 557 79 l 323 355 l 323 374 l 557 650 l 636 603 z "},"¬":{"ha":794,"x_min":71,"x_max":722,"o":"m 722 179 l 629 179 l 629 443 l 71 443 l 71 536 l 722 536 l 722 179 z "},"­":{"ha":447,"x_min":57,"x_max":390,"o":"m 390 321 l 57 321 l 57 424 l 390 424 l 390 321 z "},"®":{"ha":1156,"x_min":67,"x_max":1088,"o":"m 578 -14 q 508 -14 578 -14 q 319 56 437 -14 q 134 244 200 126 q 67 495 67 361 q 136 749 67 629 q 323 938 204 869 q 577 1006 441 1006 q 832 938 713 1006 q 1020 750 951 869 q 1088 496 1088 631 q 1021 244 1088 361 q 837 56 955 126 q 578 -14 718 -14 m 798 875 q 578 935 697 935 q 359 876 460 935 q 198 715 258 817 q 139 496 139 614 q 198 276 139 378 q 359 115 257 174 q 579 57 462 57 q 797 116 696 57 q 957 275 899 176 q 1017 495 1017 376 q 958 715 1017 614 q 798 875 899 816 m 390 798 l 567 798 q 732 754 679 798 q 785 619 785 710 q 756 523 785 564 q 674 461 727 481 l 836 193 l 722 193 l 582 433 l 490 433 l 490 193 l 390 193 l 390 798 m 490 711 l 490 517 l 564 517 q 650 545 617 517 q 684 620 684 574 q 655 689 684 667 q 562 711 626 711 l 490 711 z "},"¯":{"ha":694,"x_min":-4,"x_max":699,"o":"m 699 1055 l -4 1055 l -4 1141 l 699 1141 l 699 1055 z "},"°":{"ha":595,"x_min":86,"x_max":509,"o":"m 147 944 q 297 1006 209 1006 q 447 944 385 1006 q 509 794 509 883 q 481 689 509 737 q 404 612 453 640 q 297 583 354 583 q 147 644 209 583 q 86 793 86 705 q 147 944 86 882 m 392 889 q 298 928 354 928 q 203 889 243 928 q 164 794 164 850 q 203 700 164 739 q 298 661 243 661 q 392 699 353 661 q 431 795 431 738 q 392 889 431 852 z "},"±":{"ha":794,"x_min":71,"x_max":722,"o":"m 443 536 l 722 536 l 722 443 l 443 443 l 443 154 l 349 154 l 349 443 l 71 443 l 71 536 l 349 536 l 349 827 l 443 827 l 443 536 m 722 0 l 71 0 l 71 94 l 722 94 l 722 0 z "},"²":{"ha":482,"x_min":33,"x_max":443,"o":"m 233 1004 q 372 960 322 1004 q 422 840 422 916 q 393 735 422 787 q 262 590 363 684 l 144 478 l 443 478 l 443 397 l 33 397 l 33 468 l 193 624 q 280 714 251 679 q 320 774 309 749 q 332 841 332 800 q 305 905 332 881 q 239 929 279 929 q 166 916 199 929 q 86 869 134 903 l 41 929 q 233 1004 130 1004 z "},"³":{"ha":482,"x_min":22,"x_max":443,"o":"m 227 1004 q 372 964 319 1004 q 425 851 425 924 q 398 763 425 798 q 323 711 372 728 q 443 570 443 680 q 380 434 443 482 q 210 386 318 386 q 22 424 102 386 l 22 507 q 205 461 123 461 q 349 571 349 461 q 192 669 349 669 l 113 669 l 113 742 l 193 742 q 296 768 262 742 q 330 838 330 794 q 303 906 330 882 q 231 929 276 929 q 72 876 156 929 l 25 937 q 227 1004 119 1004 z "},"´":{"ha":802,"x_min":267,"x_max":533,"o":"m 533 1064 l 533 1050 q 444 941 503 1005 q 342 842 385 876 l 267 842 l 267 859 q 337 960 299 901 q 396 1064 374 1020 l 533 1064 z "},"¶":{"ha":909,"x_min":77,"x_max":760,"o":"m 760 -176 l 682 -176 l 682 985 l 538 985 l 538 -176 l 460 -176 l 460 379 q 361 367 418 367 q 146 451 215 367 q 77 709 77 535 q 151 969 77 884 q 382 1055 225 1055 l 760 1055 l 760 -176 z "},"·":{"ha":370,"x_min":103,"x_max":267,"o":"m 103 489 q 103 512 103 489 q 124 558 103 535 q 183 582 144 582 q 244 558 222 582 q 267 490 267 534 q 244 422 267 446 q 184 399 222 399 q 125 421 146 399 q 103 489 103 444 z "},"¸":{"ha":315,"x_min":25,"x_max":296,"o":"m 296 -196 q 243 -298 296 -262 q 90 -334 191 -334 q 25 -328 56 -334 l 25 -256 q 104 -261 58 -261 q 178 -247 151 -261 q 204 -200 204 -233 q 178 -150 204 -168 q 77 -121 149 -132 l 136 0 l 211 0 l 174 -78 q 296 -196 296 -104 z "},"¹":{"ha":482,"x_min":52,"x_max":326,"o":"m 326 397 l 236 397 l 236 790 q 240 913 236 852 q 206 881 223 896 q 97 803 189 867 l 52 868 l 229 991 l 326 991 l 326 397 z "},"»":{"ha":690,"x_min":54,"x_max":635,"o":"m 367 374 l 367 355 l 134 79 l 54 127 l 249 366 l 54 603 l 134 650 l 367 374 m 635 374 l 635 355 l 401 79 l 322 127 l 517 366 l 322 603 l 401 650 l 635 374 z "},"¼":{"ha":1083,"x_min":51,"x_max":1010,"o":"m 326 397 l 235 397 l 235 790 q 239 913 235 852 q 205 881 222 896 q 96 803 188 867 l 51 868 l 229 991 l 326 991 l 326 397 m 268 0 l 171 0 l 783 991 l 880 991 l 268 0 m 925 217 l 1010 217 l 1010 138 l 925 138 l 925 0 l 827 0 l 827 138 l 554 138 l 554 206 l 831 599 l 925 599 l 925 217 m 827 217 l 827 349 q 831 491 827 440 q 796 433 824 475 q 763 384 768 391 l 649 217 l 827 217 z "},"½":{"ha":1083,"x_min":31,"x_max":1017,"o":"m 306 397 l 216 397 l 216 790 q 220 913 216 852 q 185 881 203 896 q 77 803 168 867 l 31 868 l 209 991 l 306 991 l 306 397 m 222 0 l 125 0 l 737 991 l 834 991 l 222 0 m 807 608 q 946 564 896 608 q 996 444 996 519 q 966 338 996 389 q 836 193 937 288 l 718 81 l 1017 81 l 1017 0 l 607 0 l 607 71 l 767 227 q 856 319 829 288 q 894 377 883 351 q 905 444 905 404 q 879 508 905 484 q 812 532 852 532 q 740 519 772 532 q 659 473 708 507 l 615 532 q 807 608 703 608 z "},"¾":{"ha":1083,"x_min":18,"x_max":1064,"o":"m 222 1004 q 368 964 315 1004 q 420 851 420 924 q 394 763 420 798 q 319 711 367 728 q 438 570 438 680 q 376 434 438 482 q 205 386 313 386 q 18 424 97 386 l 18 507 q 201 461 118 461 q 344 571 344 461 q 187 669 344 669 l 108 669 l 108 742 l 189 742 q 291 768 257 742 q 326 838 326 794 q 298 906 326 882 q 226 929 271 929 q 66 876 152 929 l 20 937 q 222 1004 115 1004 m 330 0 l 233 0 l 846 991 l 943 991 l 330 0 m 979 217 l 1064 217 l 1064 138 l 979 138 l 979 0 l 881 0 l 881 138 l 608 138 l 608 206 l 885 599 l 979 599 l 979 217 m 881 217 l 881 349 q 885 491 881 440 q 850 433 878 475 q 817 384 822 391 l 703 217 l 881 217 z "},"¿":{"ha":596,"x_min":35,"x_max":578,"o":"m 269 666 q 269 687 269 666 q 292 734 269 709 q 351 758 314 758 q 411 735 388 758 q 433 666 433 713 q 351 575 433 575 q 290 598 311 575 q 269 666 269 622 m 400 464 l 400 429 q 374 296 400 347 q 276 182 348 245 q 182 93 203 119 q 152 40 161 66 q 143 -24 143 14 q 188 -130 143 -92 q 315 -168 233 -168 q 422 -155 371 -168 q 538 -110 473 -142 l 578 -201 q 313 -267 445 -267 q 108 -203 181 -267 q 35 -25 35 -140 q 56 83 35 41 q 79 123 69 107 q 114 164 89 139 q 205 248 142 192 q 290 341 269 303 q 311 443 311 380 l 311 464 l 400 464 z "},"À":{"ha":879,"x_min":0,"x_max":879,"o":"m 224 1293 l 362 1293 q 422 1185 384 1246 q 491 1088 461 1124 l 491 1071 l 416 1071 q 311 1172 372 1106 q 224 1279 251 1237 l 224 1293 m 879 0 l 760 0 l 636 315 l 239 315 l 117 0 l 0 0 l 392 996 l 489 996 l 879 0 m 600 419 l 485 726 q 439 869 462 786 q 396 726 424 806 l 279 419 l 600 419 z "},"Á":{"ha":879,"x_min":0,"x_max":879,"o":"m 623 1293 l 623 1279 q 534 1170 593 1234 q 432 1071 475 1105 l 357 1071 l 357 1088 q 427 1190 389 1130 q 486 1293 465 1249 l 623 1293 m 879 0 l 760 0 l 636 315 l 239 315 l 117 0 l 0 0 l 392 996 l 489 996 l 879 0 m 600 419 l 485 726 q 439 869 462 786 q 396 726 424 806 l 279 419 l 600 419 z "},"Â":{"ha":879,"x_min":0,"x_max":879,"o":"m 663 1071 l 582 1071 q 432 1197 524 1107 q 283 1071 339 1107 l 205 1071 l 205 1086 q 328 1224 293 1181 q 376 1293 362 1267 l 489 1293 q 541 1220 505 1263 q 663 1086 572 1181 l 663 1071 m 879 0 l 760 0 l 636 315 l 239 315 l 117 0 l 0 0 l 392 996 l 489 996 l 879 0 m 600 419 l 485 726 q 439 869 462 786 q 396 726 424 806 l 279 419 l 600 419 z "},"Ã":{"ha":879,"x_min":0,"x_max":879,"o":"m 537 1072 q 426 1113 496 1072 q 389 1134 400 1128 q 323 1153 353 1153 q 276 1133 293 1153 q 248 1071 258 1114 l 182 1071 q 230 1199 191 1153 q 330 1246 269 1246 q 446 1206 377 1246 q 463 1196 456 1199 q 477 1188 470 1192 q 487 1183 484 1184 q 497 1178 490 1181 q 507 1173 503 1175 q 516 1170 511 1172 q 526 1167 522 1168 q 543 1165 538 1165 q 592 1184 575 1165 q 619 1247 608 1203 l 686 1247 q 639 1118 677 1164 q 537 1072 600 1072 m 879 0 l 760 0 l 636 315 l 239 315 l 117 0 l 0 0 l 392 996 l 489 996 l 879 0 m 600 419 l 485 726 q 439 869 462 786 q 396 726 424 806 l 279 419 l 600 419 z "},"Ä":{"ha":879,"x_min":0,"x_max":879,"o":"m 247 1174 q 247 1191 247 1174 q 264 1224 247 1207 q 308 1240 281 1240 q 353 1224 336 1240 q 371 1174 371 1207 q 353 1124 371 1141 q 309 1107 336 1107 q 264 1124 281 1107 q 247 1174 247 1141 m 522 1224 q 531 1232 522 1224 q 566 1240 539 1240 q 611 1224 593 1240 q 629 1174 629 1207 q 611 1124 629 1141 q 566 1107 593 1107 q 523 1124 540 1107 q 505 1174 505 1141 q 522 1224 505 1207 m 879 0 l 760 0 l 636 315 l 239 315 l 117 0 l 0 0 l 392 996 l 489 996 l 879 0 m 600 419 l 485 726 q 439 869 462 786 q 396 726 424 806 l 279 419 l 600 419 z "},"Å":{"ha":879,"x_min":0,"x_max":879,"o":"m 288 1075 q 329 1180 288 1141 q 438 1219 370 1219 q 548 1179 506 1219 q 590 1076 590 1139 q 569 995 590 1029 q 509 943 547 960 l 879 0 l 760 0 l 636 315 l 239 315 l 117 0 l 0 0 l 370 941 q 309 992 331 957 q 288 1075 288 1027 m 495 1133 q 484 1144 495 1133 q 437 1154 473 1154 q 380 1133 402 1154 q 358 1075 358 1112 q 378 1016 358 1037 q 436 996 399 996 q 495 1017 473 996 q 517 1075 517 1038 q 495 1133 517 1112 m 600 419 l 485 726 q 439 869 462 786 q 396 726 424 806 l 279 419 l 600 419 z "},"Æ":{"ha":1213,"x_min":-1,"x_max":1129,"o":"m 1129 889 l 736 889 l 736 570 l 1103 570 l 1103 468 l 736 468 l 736 103 l 1129 103 l 1129 0 l 621 0 l 621 315 l 272 315 l 118 0 l -1 0 l 472 991 l 1129 991 l 1129 889 m 621 419 l 621 889 l 541 889 l 318 419 l 621 419 z "},"Ç":{"ha":876,"x_min":85,"x_max":835,"o":"m 561 903 q 303 794 397 903 q 208 493 208 685 q 299 195 208 300 q 559 89 391 89 q 796 126 664 89 l 796 25 q 553 -14 698 -12 l 522 -78 q 644 -196 644 -104 q 592 -298 644 -262 q 439 -334 540 -334 q 374 -328 404 -334 l 374 -256 q 453 -261 406 -261 q 526 -247 500 -261 q 553 -200 553 -233 q 526 -150 553 -168 q 425 -121 497 -132 l 479 -11 q 187 139 290 8 q 85 497 85 271 q 142 766 85 650 q 308 943 200 881 q 567 1006 416 1006 q 835 949 718 1006 l 786 850 q 561 903 673 903 z "},"È":{"ha":772,"x_min":136,"x_max":689,"o":"m 217 1293 l 355 1293 q 415 1185 376 1246 q 484 1088 454 1124 l 484 1071 l 409 1071 q 304 1172 364 1106 q 217 1279 243 1237 l 217 1293 m 689 889 l 252 889 l 252 570 l 663 570 l 663 468 l 252 468 l 252 103 l 689 103 l 689 0 l 136 0 l 136 991 l 689 991 l 689 889 z "},"É":{"ha":772,"x_min":136,"x_max":689,"o":"m 576 1293 l 576 1279 q 486 1170 545 1234 q 385 1071 427 1105 l 309 1071 l 309 1088 q 379 1190 342 1130 q 439 1293 417 1249 l 576 1293 m 689 889 l 252 889 l 252 570 l 663 570 l 663 468 l 252 468 l 252 103 l 689 103 l 689 0 l 136 0 l 136 991 l 689 991 l 689 889 z "},"Ê":{"ha":772,"x_min":136,"x_max":689,"o":"m 635 1071 l 555 1071 q 405 1197 496 1107 q 256 1071 312 1107 l 178 1071 l 178 1086 q 300 1224 266 1181 q 349 1293 335 1267 l 462 1293 q 514 1220 478 1263 q 635 1086 545 1181 l 635 1071 m 689 889 l 252 889 l 252 570 l 663 570 l 663 468 l 252 468 l 252 103 l 689 103 l 689 0 l 136 0 l 136 991 l 689 991 l 689 889 z "},"Ë":{"ha":772,"x_min":136,"x_max":689,"o":"m 222 1174 q 222 1191 222 1174 q 239 1224 222 1207 q 283 1240 256 1240 q 328 1224 311 1240 q 346 1174 346 1207 q 328 1124 346 1141 q 283 1107 311 1107 q 239 1124 256 1107 q 222 1174 222 1141 m 497 1224 q 506 1232 497 1224 q 541 1240 514 1240 q 586 1224 568 1240 q 604 1174 604 1207 q 586 1124 604 1141 q 541 1107 568 1107 q 497 1124 515 1107 q 480 1174 480 1141 q 497 1224 480 1207 m 689 889 l 252 889 l 252 570 l 663 570 l 663 468 l 252 468 l 252 103 l 689 103 l 689 0 l 136 0 l 136 991 l 689 991 l 689 889 z "},"Ì":{"ha":387,"x_min":3,"x_max":270,"o":"m 3 1293 l 141 1293 q 201 1185 163 1246 q 270 1088 240 1124 l 270 1071 l 195 1071 q 90 1172 151 1106 q 3 1279 30 1237 l 3 1293 m 252 0 l 136 0 l 136 991 l 252 991 l 252 0 z "},"Í":{"ha":387,"x_min":121,"x_max":388,"o":"m 388 1293 l 388 1279 q 298 1170 357 1234 q 197 1071 239 1105 l 121 1071 l 121 1088 q 192 1190 154 1130 q 251 1293 229 1249 l 388 1293 m 252 0 l 136 0 l 136 991 l 252 991 l 252 0 z "},"Î":{"ha":387,"x_min":-39,"x_max":418,"o":"m 418 1071 l 338 1071 q 188 1197 279 1107 q 39 1071 95 1107 l -39 1071 l -39 1086 q 83 1224 49 1181 q 132 1293 118 1267 l 245 1293 q 297 1220 261 1263 q 418 1086 328 1181 l 418 1071 m 252 0 l 136 0 l 136 991 l 252 991 l 252 0 z "},"Ï":{"ha":387,"x_min":3,"x_max":385,"o":"m 3 1174 q 3 1191 3 1174 q 20 1224 3 1207 q 65 1240 37 1240 q 110 1224 92 1240 q 127 1174 127 1207 q 110 1124 127 1141 q 65 1107 92 1107 q 21 1124 38 1107 q 3 1174 3 1141 m 279 1224 q 287 1232 279 1224 q 323 1240 296 1240 q 368 1224 350 1240 q 385 1174 385 1207 q 367 1124 385 1141 q 323 1107 349 1107 q 279 1124 296 1107 q 262 1174 262 1141 q 279 1224 262 1207 m 252 0 l 136 0 l 136 991 l 252 991 l 252 0 z "},"Ð":{"ha":1003,"x_min":32,"x_max":917,"o":"m 136 991 l 431 991 q 788 864 660 991 q 917 505 917 736 q 784 130 917 260 q 400 0 650 0 l 136 0 l 136 440 l 32 440 l 32 542 l 136 542 l 136 991 m 252 892 l 252 542 l 509 542 l 509 440 l 252 440 l 252 100 l 380 100 q 794 501 794 100 q 408 892 794 892 l 252 892 z "},"Ñ":{"ha":1047,"x_min":136,"x_max":911,"o":"m 634 1072 q 523 1113 593 1072 q 486 1134 497 1128 q 420 1153 450 1153 q 373 1133 390 1153 q 345 1071 355 1114 l 279 1071 q 327 1199 288 1153 q 427 1246 366 1246 q 543 1206 474 1246 q 560 1196 553 1199 q 574 1188 567 1192 q 584 1183 581 1184 q 594 1178 587 1181 q 604 1173 600 1175 q 613 1170 608 1172 q 623 1167 618 1168 q 640 1165 635 1165 q 689 1184 672 1165 q 716 1247 705 1203 l 783 1247 q 736 1118 774 1164 q 634 1072 697 1072 m 911 0 l 779 0 l 237 832 l 232 832 q 243 564 243 690 l 243 0 l 136 0 l 136 991 l 267 991 l 807 163 l 812 163 q 806 276 810 192 q 803 387 803 361 q 803 422 803 413 l 803 991 l 911 991 l 911 0 z "},"Ò":{"ha":1082,"x_min":85,"x_max":997,"o":"m 349 1293 l 486 1293 q 547 1185 508 1246 q 615 1088 585 1124 l 615 1071 l 541 1071 q 435 1172 496 1106 q 349 1279 375 1237 l 349 1293 m 85 497 q 85 619 85 497 q 204 874 85 741 q 540 1007 324 1007 q 877 871 756 1007 q 997 497 997 736 q 876 122 997 258 q 539 -14 755 -14 q 204 120 323 -14 q 85 497 85 254 m 875 496 q 875 597 875 496 q 791 801 875 697 q 543 904 707 904 q 293 800 378 904 q 207 496 207 696 q 293 192 207 296 q 543 87 378 87 q 791 191 707 87 q 875 496 875 295 z "},"Ó":{"ha":1082,"x_min":85,"x_max":997,"o":"m 713 1293 l 713 1279 q 624 1170 683 1234 q 522 1071 565 1105 l 447 1071 l 447 1088 q 517 1190 479 1130 q 576 1293 555 1249 l 713 1293 m 85 497 q 85 619 85 497 q 204 874 85 741 q 540 1007 324 1007 q 877 871 756 1007 q 997 497 997 736 q 876 122 997 258 q 539 -14 755 -14 q 204 120 323 -14 q 85 497 85 254 m 875 496 q 875 597 875 496 q 791 801 875 697 q 543 904 707 904 q 293 800 378 904 q 207 496 207 696 q 293 192 207 296 q 543 87 378 87 q 791 191 707 87 q 875 496 875 295 z "},"Ô":{"ha":1082,"x_min":85,"x_max":997,"o":"m 761 1071 l 680 1071 q 530 1197 622 1107 q 382 1071 438 1107 l 304 1071 l 304 1086 q 426 1224 391 1181 q 475 1293 460 1267 l 587 1293 q 640 1220 604 1263 q 761 1086 671 1181 l 761 1071 m 85 497 q 85 619 85 497 q 204 874 85 741 q 540 1007 324 1007 q 877 871 756 1007 q 997 497 997 736 q 876 122 997 258 q 539 -14 755 -14 q 204 120 323 -14 q 85 497 85 254 m 875 496 q 875 597 875 496 q 791 801 875 697 q 543 904 707 904 q 293 800 378 904 q 207 496 207 696 q 293 192 207 296 q 543 87 378 87 q 791 191 707 87 q 875 496 875 295 z "},"Õ":{"ha":1082,"x_min":85,"x_max":997,"o":"m 639 1072 q 528 1113 598 1072 q 491 1134 502 1128 q 425 1153 454 1153 q 377 1133 395 1153 q 350 1071 360 1114 l 283 1071 q 331 1199 292 1153 q 432 1246 370 1246 q 548 1206 479 1246 q 565 1196 558 1199 q 579 1188 572 1192 q 589 1183 586 1184 q 598 1178 592 1181 q 609 1173 605 1175 q 618 1170 612 1172 q 627 1167 623 1168 q 645 1165 640 1165 q 693 1184 677 1165 q 721 1247 710 1203 l 788 1247 q 741 1118 779 1164 q 639 1072 702 1072 m 85 497 q 85 619 85 497 q 204 874 85 741 q 540 1007 324 1007 q 877 871 756 1007 q 997 497 997 736 q 876 122 997 258 q 539 -14 755 -14 q 204 120 323 -14 q 85 497 85 254 m 875 496 q 875 597 875 496 q 791 801 875 697 q 543 904 707 904 q 293 800 378 904 q 207 496 207 696 q 293 192 207 296 q 543 87 378 87 q 791 191 707 87 q 875 496 875 295 z "},"Ö":{"ha":1082,"x_min":85,"x_max":997,"o":"m 354 1174 q 354 1191 354 1174 q 371 1224 354 1207 q 415 1240 388 1240 q 460 1224 443 1240 q 478 1174 478 1207 q 460 1124 478 1141 q 416 1107 443 1107 q 371 1124 389 1107 q 354 1174 354 1141 m 629 1224 q 638 1232 629 1224 q 673 1240 646 1240 q 718 1224 701 1240 q 736 1174 736 1207 q 718 1124 736 1141 q 673 1107 700 1107 q 630 1124 647 1107 q 612 1174 612 1141 q 629 1224 612 1207 m 85 497 q 85 619 85 497 q 204 874 85 741 q 540 1007 324 1007 q 877 871 756 1007 q 997 497 997 736 q 876 122 997 258 q 539 -14 755 -14 q 204 120 323 -14 q 85 497 85 254 m 875 496 q 875 597 875 496 q 791 801 875 697 q 543 904 707 904 q 293 800 378 904 q 207 496 207 696 q 293 192 207 296 q 543 87 378 87 q 791 191 707 87 q 875 496 875 295 z "},"×":{"ha":794,"x_min":90,"x_max":703,"o":"m 703 730 l 464 490 l 701 252 l 636 184 l 396 422 l 160 184 l 92 252 l 329 490 l 90 729 l 158 798 l 397 557 l 637 798 l 703 730 z "},"Ø":{"ha":1082,"x_min":85,"x_max":997,"o":"m 867 880 q 997 500 997 743 q 876 122 997 258 q 542 -14 755 -14 q 282 54 382 -14 l 214 -41 l 132 12 l 205 117 q 85 496 85 250 q 204 874 85 741 q 543 1007 324 1007 q 791 943 685 1007 l 857 1035 l 939 981 l 867 880 m 543 904 q 293 800 378 904 q 207 497 207 696 q 275 215 207 320 l 729 854 q 543 904 657 904 m 542 87 q 791 191 707 87 q 875 497 875 295 q 800 786 875 681 l 345 143 q 542 87 422 87 z "},"Ù":{"ha":1011,"x_min":126,"x_max":885,"o":"m 314 1293 l 452 1293 q 512 1185 473 1246 q 581 1088 551 1124 l 581 1071 l 506 1071 q 401 1172 461 1106 q 314 1279 340 1237 l 314 1293 m 885 991 l 885 350 q 783 83 885 180 q 502 -14 680 -14 q 224 84 323 -14 q 126 353 126 181 l 126 991 l 241 991 l 241 345 q 310 154 241 220 q 506 87 378 87 q 702 154 634 87 q 770 346 770 221 l 770 991 l 885 991 z "},"Ú":{"ha":1011,"x_min":126,"x_max":885,"o":"m 673 1293 l 673 1279 q 584 1170 643 1234 q 482 1071 525 1105 l 407 1071 l 407 1088 q 477 1190 439 1130 q 536 1293 515 1249 l 673 1293 m 885 991 l 885 350 q 783 83 885 180 q 502 -14 680 -14 q 224 84 323 -14 q 126 353 126 181 l 126 991 l 241 991 l 241 345 q 310 154 241 220 q 506 87 378 87 q 702 154 634 87 q 770 346 770 221 l 770 991 l 885 991 z "},"Û":{"ha":1011,"x_min":126,"x_max":885,"o":"m 724 1071 l 643 1071 q 493 1197 585 1107 q 345 1071 400 1107 l 267 1071 l 267 1086 q 389 1224 354 1181 q 437 1293 423 1267 l 550 1293 q 602 1220 566 1263 q 724 1086 633 1181 l 724 1071 m 885 991 l 885 350 q 783 83 885 180 q 502 -14 680 -14 q 224 84 323 -14 q 126 353 126 181 l 126 991 l 241 991 l 241 345 q 310 154 241 220 q 506 87 378 87 q 702 154 634 87 q 770 346 770 221 l 770 991 l 885 991 z "},"Ü":{"ha":1011,"x_min":126,"x_max":885,"o":"m 313 1174 q 313 1191 313 1174 q 330 1224 313 1207 q 374 1240 347 1240 q 419 1224 401 1240 q 437 1174 437 1207 q 419 1124 437 1141 q 374 1107 401 1107 q 330 1124 347 1107 q 313 1174 313 1141 m 588 1224 q 596 1232 588 1224 q 632 1240 605 1240 q 677 1224 659 1240 q 694 1174 694 1207 q 676 1124 694 1141 q 632 1107 659 1107 q 588 1124 606 1107 q 571 1174 571 1141 q 588 1224 571 1207 m 885 991 l 885 350 q 783 83 885 180 q 502 -14 680 -14 q 224 84 323 -14 q 126 353 126 181 l 126 991 l 241 991 l 241 345 q 310 154 241 220 q 506 87 378 87 q 702 154 634 87 q 770 346 770 221 l 770 991 l 885 991 z "},"Ý":{"ha":778,"x_min":0,"x_max":778,"o":"m 566 1293 l 566 1279 q 477 1170 536 1234 q 375 1071 418 1105 l 300 1071 l 300 1088 q 370 1190 332 1130 q 429 1293 408 1249 l 566 1293 m 447 0 l 330 0 l 330 379 l 0 991 l 126 991 l 389 496 l 653 991 l 778 991 l 447 385 l 447 0 z "},"Þ":{"ha":848,"x_min":136,"x_max":777,"o":"m 252 818 l 397 818 q 683 748 589 818 q 777 528 777 677 q 674 297 777 378 q 376 216 572 216 l 252 216 l 252 0 l 136 0 l 136 991 l 252 991 l 252 818 m 252 718 l 252 315 l 366 315 q 588 364 519 315 q 656 518 656 412 q 591 671 656 625 q 390 718 527 718 l 252 718 z "},"ß":{"ha":864,"x_min":119,"x_max":800,"o":"m 119 0 l 119 815 q 195 1000 119 937 q 414 1063 270 1063 q 635 1009 559 1063 q 711 862 711 956 q 614 689 711 768 q 536 619 555 642 q 517 574 517 596 q 526 538 517 552 q 559 505 534 524 q 636 450 584 485 q 765 334 730 387 q 800 211 800 281 q 734 44 800 102 q 544 -14 669 -14 q 347 33 419 -14 l 347 138 q 444 95 391 111 q 545 79 496 79 q 690 203 690 79 q 663 290 690 254 q 554 378 635 326 q 441 471 473 429 q 408 570 408 513 q 431 648 408 612 q 505 722 454 684 q 576 790 555 760 q 597 856 597 820 q 551 939 597 910 q 419 968 505 968 q 232 817 232 968 l 232 0 l 119 0 z "},"à":{"ha":772,"x_min":64,"x_max":660,"o":"m 189 1064 l 327 1064 q 387 956 349 1017 q 456 859 426 895 l 456 842 l 381 842 q 276 942 336 877 q 189 1050 216 1008 l 189 1064 m 147 692 q 398 755 264 755 q 596 696 532 755 q 660 507 660 637 l 660 0 l 576 0 l 554 106 l 549 106 q 439 12 494 37 q 300 -14 385 -14 q 126 44 189 -14 q 64 205 64 101 q 424 441 64 430 l 550 446 l 550 492 q 512 621 550 580 q 386 663 474 663 q 182 606 298 663 l 147 692 m 182 204 q 218 112 182 144 q 322 79 255 79 q 488 137 428 79 q 547 298 547 195 l 547 366 l 435 361 q 241 319 300 356 q 182 204 182 282 z "},"á":{"ha":772,"x_min":64,"x_max":660,"o":"m 562 1064 l 562 1050 q 473 941 532 1005 q 371 842 414 876 l 296 842 l 296 859 q 366 960 328 901 q 425 1064 404 1020 l 562 1064 m 147 692 q 398 755 264 755 q 596 696 532 755 q 660 507 660 637 l 660 0 l 576 0 l 554 106 l 549 106 q 439 12 494 37 q 300 -14 385 -14 q 126 44 189 -14 q 64 205 64 101 q 424 441 64 430 l 550 446 l 550 492 q 512 621 550 580 q 386 663 474 663 q 182 606 298 663 l 147 692 m 182 204 q 218 112 182 144 q 322 79 255 79 q 488 137 428 79 q 547 298 547 195 l 547 366 l 435 361 q 241 319 300 356 q 182 204 182 282 z "},"â":{"ha":772,"x_min":64,"x_max":660,"o":"m 612 842 l 531 842 q 381 968 473 878 q 233 842 289 878 l 155 842 l 155 857 q 277 995 242 951 q 326 1064 311 1038 l 438 1064 q 490 991 454 1034 q 612 857 522 951 l 612 842 m 147 692 q 398 755 264 755 q 596 696 532 755 q 660 507 660 637 l 660 0 l 576 0 l 554 106 l 549 106 q 439 12 494 37 q 300 -14 385 -14 q 126 44 189 -14 q 64 205 64 101 q 424 441 64 430 l 550 446 l 550 492 q 512 621 550 580 q 386 663 474 663 q 182 606 298 663 l 147 692 m 182 204 q 218 112 182 144 q 322 79 255 79 q 488 137 428 79 q 547 298 547 195 l 547 366 l 435 361 q 241 319 300 356 q 182 204 182 282 z "},"ã":{"ha":772,"x_min":64,"x_max":660,"o":"m 489 843 q 378 884 448 843 q 341 905 352 899 q 275 924 304 924 q 228 904 245 924 q 200 842 210 884 l 134 842 q 181 970 142 924 q 282 1017 220 1017 q 398 977 329 1017 q 415 966 408 970 q 429 959 422 963 q 439 954 436 955 q 449 949 442 952 q 459 944 455 945 q 468 941 463 943 q 477 938 473 939 q 495 936 490 936 q 544 955 527 936 q 571 1018 560 974 l 638 1018 q 591 889 629 935 q 489 843 552 843 m 147 692 q 398 755 264 755 q 596 696 532 755 q 660 507 660 637 l 660 0 l 576 0 l 554 106 l 549 106 q 439 12 494 37 q 300 -14 385 -14 q 126 44 189 -14 q 64 205 64 101 q 424 441 64 430 l 550 446 l 550 492 q 512 621 550 580 q 386 663 474 663 q 182 606 298 663 l 147 692 m 182 204 q 218 112 182 144 q 322 79 255 79 q 488 137 428 79 q 547 298 547 195 l 547 366 l 435 361 q 241 319 300 356 q 182 204 182 282 z "},"ä":{"ha":772,"x_min":64,"x_max":660,"o":"m 189 945 q 189 961 189 945 q 206 995 189 978 q 251 1011 223 1011 q 296 995 278 1011 q 313 945 313 978 q 296 895 313 912 q 251 878 278 878 q 207 895 224 878 q 189 945 189 912 m 465 995 q 473 1003 465 995 q 509 1011 481 1011 q 553 995 536 1011 q 571 945 571 978 q 553 895 571 912 q 509 878 535 878 q 465 895 482 878 q 448 945 448 912 q 465 995 448 978 m 147 692 q 398 755 264 755 q 596 696 532 755 q 660 507 660 637 l 660 0 l 576 0 l 554 106 l 549 106 q 439 12 494 37 q 300 -14 385 -14 q 126 44 189 -14 q 64 205 64 101 q 424 441 64 430 l 550 446 l 550 492 q 512 621 550 580 q 386 663 474 663 q 182 606 298 663 l 147 692 m 182 204 q 218 112 182 144 q 322 79 255 79 q 488 137 428 79 q 547 298 547 195 l 547 366 l 435 361 q 241 319 300 356 q 182 204 182 282 z "},"å":{"ha":772,"x_min":64,"x_max":660,"o":"m 243 987 q 243 1021 243 987 q 284 1093 243 1054 q 393 1132 325 1132 q 503 1092 461 1132 q 545 987 545 1052 q 504 882 545 922 q 393 842 462 842 q 283 881 324 842 q 243 987 243 921 m 450 1046 q 439 1056 450 1046 q 393 1067 428 1067 q 335 1046 357 1067 q 313 987 313 1025 q 334 929 313 949 q 391 908 354 908 q 450 929 429 908 q 472 987 472 950 q 450 1046 472 1025 m 147 692 q 398 755 264 755 q 596 696 532 755 q 660 507 660 637 l 660 0 l 576 0 l 554 106 l 549 106 q 439 12 494 37 q 300 -14 385 -14 q 126 44 189 -14 q 64 205 64 101 q 424 441 64 430 l 550 446 l 550 492 q 512 621 550 580 q 386 663 474 663 q 182 606 298 663 l 147 692 m 182 204 q 218 112 182 144 q 322 79 255 79 q 488 137 428 79 q 547 298 547 195 l 547 366 l 435 361 q 241 319 300 356 q 182 204 182 282 z "},"æ":{"ha":1192,"x_min":64,"x_max":1120,"o":"m 378 755 q 522 726 467 755 q 606 632 578 696 q 700 725 642 692 q 832 757 758 757 q 1041 666 962 757 q 1120 425 1120 576 l 1120 353 l 644 353 q 863 85 650 85 q 1088 135 980 85 l 1088 35 q 978 -3 1028 8 q 860 -14 928 -14 q 579 144 664 -14 q 459 23 525 60 q 300 -14 393 -14 q 126 44 189 -14 q 64 209 64 102 q 149 376 64 316 q 404 441 233 436 l 529 446 l 529 492 q 490 621 529 579 q 370 663 451 663 q 161 606 273 663 l 126 692 q 245 738 178 720 q 378 755 313 755 m 999 443 q 956 606 999 549 q 830 663 912 663 q 702 606 749 663 q 647 443 654 550 l 999 443 m 182 204 q 217 111 182 142 q 314 79 252 79 q 470 137 413 79 q 526 298 526 195 l 526 366 l 419 361 q 237 318 293 355 q 182 204 182 281 z "},"ç":{"ha":661,"x_min":78,"x_max":615,"o":"m 421 657 q 195 368 195 657 q 250 158 195 231 q 414 85 306 85 q 604 125 506 85 l 604 25 q 425 -14 533 -12 l 395 -78 q 517 -196 517 -104 q 465 -298 517 -262 q 311 -334 412 -334 q 246 -328 277 -334 l 246 -256 q 326 -261 279 -261 q 399 -247 372 -261 q 425 -200 425 -233 q 399 -150 425 -168 q 298 -121 370 -132 l 353 -9 q 149 107 220 10 q 78 367 78 205 q 168 655 78 554 q 424 757 258 757 q 530 746 476 757 q 615 718 584 734 l 581 623 q 421 657 494 657 z "},"è":{"ha":779,"x_min":78,"x_max":707,"o":"m 216 1064 l 353 1064 q 414 956 375 1017 q 482 859 452 895 l 482 842 l 408 842 q 302 942 363 877 q 216 1050 242 1008 l 216 1064 m 433 -14 q 173 87 268 -14 q 78 366 78 188 q 166 651 78 545 q 399 757 255 757 q 625 665 543 757 q 707 422 707 574 l 707 351 l 195 351 q 260 153 198 221 q 440 85 323 85 q 675 135 557 85 l 675 35 q 561 -3 614 8 q 433 -14 507 -14 m 586 443 q 538 606 586 549 q 402 663 491 663 q 260 605 314 663 q 197 443 207 547 l 586 443 z "},"é":{"ha":779,"x_min":78,"x_max":707,"o":"m 586 1064 l 586 1050 q 496 941 555 1005 q 395 842 437 876 l 319 842 l 319 859 q 390 960 352 901 q 449 1064 427 1020 l 586 1064 m 433 -14 q 173 87 268 -14 q 78 366 78 188 q 166 651 78 545 q 399 757 255 757 q 625 665 543 757 q 707 422 707 574 l 707 351 l 195 351 q 260 153 198 221 q 440 85 323 85 q 675 135 557 85 l 675 35 q 561 -3 614 8 q 433 -14 507 -14 m 586 443 q 538 606 586 549 q 402 663 491 663 q 260 605 314 663 q 197 443 207 547 l 586 443 z "},"ê":{"ha":779,"x_min":78,"x_max":707,"o":"m 633 842 l 552 842 q 402 968 494 878 q 254 842 309 878 l 176 842 l 176 857 q 298 995 263 951 q 347 1064 332 1038 l 459 1064 q 511 991 475 1034 q 633 857 543 951 l 633 842 m 433 -14 q 173 87 268 -14 q 78 366 78 188 q 166 651 78 545 q 399 757 255 757 q 625 665 543 757 q 707 422 707 574 l 707 351 l 195 351 q 260 153 198 221 q 440 85 323 85 q 675 135 557 85 l 675 35 q 561 -3 614 8 q 433 -14 507 -14 m 586 443 q 538 606 586 549 q 402 663 491 663 q 260 605 314 663 q 197 443 207 547 l 586 443 z "},"ë":{"ha":779,"x_min":78,"x_max":707,"o":"m 216 945 q 216 961 216 945 q 233 995 216 978 q 278 1011 250 1011 q 323 995 305 1011 q 340 945 340 978 q 323 895 340 912 q 278 878 305 878 q 234 895 251 878 q 216 945 216 912 m 492 995 q 500 1003 492 995 q 536 1011 509 1011 q 581 995 563 1011 q 598 945 598 978 q 580 895 598 912 q 536 878 562 878 q 492 895 509 878 q 475 945 475 912 q 492 995 475 978 m 433 -14 q 173 87 268 -14 q 78 366 78 188 q 166 651 78 545 q 399 757 255 757 q 625 665 543 757 q 707 422 707 574 l 707 351 l 195 351 q 260 153 198 221 q 440 85 323 85 q 675 135 557 85 l 675 35 q 561 -3 614 8 q 433 -14 507 -14 m 586 443 q 538 606 586 549 q 402 663 491 663 q 260 605 314 663 q 197 443 207 547 l 586 443 z "},"ì":{"ha":351,"x_min":-26,"x_max":241,"o":"m -26 1064 l 112 1064 q 172 956 134 1017 q 241 859 211 895 l 241 842 l 166 842 q 61 942 121 877 q -26 1050 1 1008 l -26 1064 m 232 0 l 119 0 l 119 743 l 232 743 l 232 0 z "},"í":{"ha":351,"x_min":115,"x_max":381,"o":"m 381 1064 l 381 1050 q 292 941 351 1005 q 190 842 233 876 l 115 842 l 115 859 q 185 960 147 901 q 244 1064 222 1020 l 381 1064 m 232 0 l 119 0 l 119 743 l 232 743 l 232 0 z "},"î":{"ha":351,"x_min":-52,"x_max":405,"o":"m 405 842 l 324 842 q 174 968 266 878 q 26 842 81 878 l -52 842 l -52 857 q 70 995 35 951 q 119 1064 104 1038 l 231 1064 q 283 991 248 1034 q 405 857 315 951 l 405 842 m 232 0 l 119 0 l 119 743 l 232 743 l 232 0 z "},"ï":{"ha":351,"x_min":-14,"x_max":368,"o":"m -14 945 q -14 961 -14 945 q 3 995 -14 978 q 48 1011 20 1011 q 93 995 75 1011 q 111 945 111 978 q 93 895 111 912 q 48 878 75 878 q 4 895 21 878 q -14 945 -14 912 m 262 995 q 270 1003 262 995 q 306 1011 279 1011 q 351 995 333 1011 q 368 945 368 978 q 350 895 368 912 q 306 878 332 878 q 262 895 279 878 q 245 945 245 912 q 262 995 245 978 m 232 0 l 119 0 l 119 743 l 232 743 l 232 0 z "},"ð":{"ha":828,"x_min":77,"x_max":761,"o":"m 761 382 q 672 89 761 191 q 416 -14 583 -14 q 171 78 264 -14 q 77 324 77 170 q 165 567 77 477 q 406 656 254 656 q 625 574 557 656 l 631 576 q 453 851 592 722 l 269 746 l 220 819 l 378 909 q 252 985 316 951 l 298 1064 q 473 964 406 1014 l 635 1057 l 686 985 l 546 904 q 705 671 650 806 q 761 382 761 536 m 419 562 q 191 318 191 562 q 250 143 191 205 q 422 81 309 81 q 647 347 647 81 q 586 505 647 447 q 419 562 525 562 z "},"ñ":{"ha":852,"x_min":119,"x_max":741,"o":"m 544 843 q 433 884 503 843 q 396 905 407 899 q 330 924 359 924 q 282 904 300 924 q 255 842 265 884 l 189 842 q 236 970 197 924 q 337 1017 275 1017 q 453 977 384 1017 q 470 966 463 970 q 484 959 477 963 q 494 954 491 955 q 504 949 497 952 q 514 944 510 945 q 523 941 517 943 q 532 938 528 939 q 550 936 545 936 q 598 955 582 936 q 626 1018 615 974 l 693 1018 q 646 889 684 935 q 544 843 607 843 m 471 757 q 674 691 607 757 q 741 485 741 625 l 741 0 l 628 0 l 628 481 q 586 617 628 572 q 457 661 545 661 q 286 597 340 661 q 232 390 232 534 l 232 0 l 119 0 l 119 743 l 211 743 l 229 642 l 235 642 q 331 727 269 696 q 471 757 393 757 z "},"ò":{"ha":839,"x_min":78,"x_max":761,"o":"m 237 1064 l 374 1064 q 435 956 396 1017 q 503 859 473 895 l 503 842 l 429 842 q 323 942 384 877 q 237 1050 263 1008 l 237 1064 m 78 372 q 169 655 78 553 q 418 757 260 757 q 669 653 577 757 q 761 370 761 549 q 669 89 761 191 q 416 -14 578 -14 q 239 33 317 -14 q 120 168 162 80 q 78 372 78 256 m 418 661 q 195 372 195 661 q 252 155 195 230 q 419 81 309 81 q 587 155 530 81 q 644 372 644 229 q 587 588 644 515 q 418 661 530 661 z "},"ó":{"ha":839,"x_min":78,"x_max":761,"o":"m 591 1064 l 591 1050 q 502 941 561 1005 q 400 842 443 876 l 325 842 l 325 859 q 395 960 357 901 q 454 1064 433 1020 l 591 1064 m 78 372 q 169 655 78 553 q 418 757 260 757 q 669 653 577 757 q 761 370 761 549 q 669 89 761 191 q 416 -14 578 -14 q 239 33 317 -14 q 120 168 162 80 q 78 372 78 256 m 418 661 q 195 372 195 661 q 252 155 195 230 q 419 81 309 81 q 587 155 530 81 q 644 372 644 229 q 587 588 644 515 q 418 661 530 661 z "},"ô":{"ha":839,"x_min":78,"x_max":761,"o":"m 648 842 l 568 842 q 418 968 509 878 q 269 842 326 878 l 191 842 l 191 857 q 313 995 279 951 q 362 1064 348 1038 l 475 1064 q 527 991 491 1034 q 648 857 558 951 l 648 842 m 78 372 q 169 655 78 553 q 418 757 260 757 q 669 653 577 757 q 761 370 761 549 q 669 89 761 191 q 416 -14 578 -14 q 239 33 317 -14 q 120 168 162 80 q 78 372 78 256 m 418 661 q 195 372 195 661 q 252 155 195 230 q 419 81 309 81 q 587 155 530 81 q 644 372 644 229 q 587 588 644 515 q 418 661 530 661 z "},"õ":{"ha":839,"x_min":78,"x_max":761,"o":"m 524 843 q 413 884 484 843 q 376 905 387 899 q 310 924 340 924 q 263 904 280 924 q 235 842 245 884 l 169 842 q 217 970 178 924 q 317 1017 256 1017 q 433 977 364 1017 q 450 966 444 970 q 464 959 457 963 q 474 954 471 955 q 484 949 477 952 q 494 944 490 945 q 503 941 498 943 q 513 938 509 939 q 530 936 525 936 q 579 955 562 936 q 606 1018 595 974 l 673 1018 q 626 889 665 935 q 524 843 587 843 m 78 372 q 169 655 78 553 q 418 757 260 757 q 669 653 577 757 q 761 370 761 549 q 669 89 761 191 q 416 -14 578 -14 q 239 33 317 -14 q 120 168 162 80 q 78 372 78 256 m 418 661 q 195 372 195 661 q 252 155 195 230 q 419 81 309 81 q 587 155 530 81 q 644 372 644 229 q 587 588 644 515 q 418 661 530 661 z "},"ö":{"ha":839,"x_min":78,"x_max":761,"o":"m 228 945 q 228 961 228 945 q 245 995 228 978 q 289 1011 262 1011 q 334 995 317 1011 q 352 945 352 978 q 334 895 352 912 q 290 878 317 878 q 245 895 262 878 q 228 945 228 912 m 503 995 q 512 1003 503 995 q 547 1011 520 1011 q 592 995 574 1011 q 610 945 610 978 q 592 895 610 912 q 547 878 574 878 q 504 895 521 878 q 486 945 486 912 q 503 995 486 978 m 78 372 q 169 655 78 553 q 418 757 260 757 q 669 653 577 757 q 761 370 761 549 q 669 89 761 191 q 416 -14 578 -14 q 239 33 317 -14 q 120 168 162 80 q 78 372 78 256 m 418 661 q 195 372 195 661 q 252 155 195 230 q 419 81 309 81 q 587 155 530 81 q 644 372 644 229 q 587 588 644 515 q 418 661 530 661 z "},"÷":{"ha":794,"x_min":71,"x_max":722,"o":"m 319 727 q 319 746 319 727 q 339 787 319 766 q 395 808 359 808 q 451 787 431 808 q 471 727 471 766 q 451 666 471 688 q 396 644 431 644 q 340 666 361 644 q 319 727 319 687 m 722 443 l 71 443 l 71 536 l 722 536 l 722 443 m 319 254 q 319 273 319 254 q 339 314 319 293 q 395 335 359 335 q 451 314 431 335 q 471 253 471 292 q 451 193 471 214 q 396 171 431 171 q 340 193 361 171 q 319 254 319 214 z "},"ø":{"ha":839,"x_min":78,"x_max":761,"o":"m 675 644 q 761 367 761 542 q 669 89 761 191 q 416 -14 578 -14 q 236 33 313 -14 l 179 -46 l 102 7 l 165 96 q 78 376 78 198 q 169 655 78 553 q 421 757 260 757 q 604 705 526 757 l 661 786 l 741 734 l 675 644 m 418 661 q 195 372 195 661 q 231 187 195 257 l 546 625 q 418 661 494 661 m 419 81 q 587 155 530 81 q 644 372 644 229 q 610 551 644 483 l 294 115 q 419 81 342 81 z "},"ù":{"ha":852,"x_min":111,"x_max":733,"o":"m 226 1064 l 363 1064 q 424 956 385 1017 q 492 859 463 895 l 492 842 l 418 842 q 313 942 373 877 q 226 1050 252 1008 l 226 1064 m 733 0 l 640 0 l 624 100 l 618 100 q 522 16 583 45 q 382 -14 461 -14 q 178 52 244 -14 q 111 257 111 117 l 111 743 l 225 743 l 225 261 q 267 125 225 170 q 396 81 309 81 q 567 145 513 81 q 621 353 621 209 l 621 743 l 733 743 l 733 0 z "},"ú":{"ha":852,"x_min":111,"x_max":733,"o":"m 610 1064 l 610 1050 q 520 941 579 1005 q 418 842 461 876 l 343 842 l 343 859 q 413 960 376 901 q 473 1064 451 1020 l 610 1064 m 733 0 l 640 0 l 624 100 l 618 100 q 522 16 583 45 q 382 -14 461 -14 q 178 52 244 -14 q 111 257 111 117 l 111 743 l 225 743 l 225 261 q 267 125 225 170 q 396 81 309 81 q 567 145 513 81 q 621 353 621 209 l 621 743 l 733 743 l 733 0 z "},"û":{"ha":852,"x_min":111,"x_max":733,"o":"m 651 842 l 570 842 q 420 968 512 878 q 272 842 328 878 l 194 842 l 194 857 q 316 995 281 951 q 365 1064 351 1038 l 477 1064 q 530 991 494 1034 q 651 857 561 951 l 651 842 m 733 0 l 640 0 l 624 100 l 618 100 q 522 16 583 45 q 382 -14 461 -14 q 178 52 244 -14 q 111 257 111 117 l 111 743 l 225 743 l 225 261 q 267 125 225 170 q 396 81 309 81 q 567 145 513 81 q 621 353 621 209 l 621 743 l 733 743 l 733 0 z "},"ü":{"ha":852,"x_min":111,"x_max":733,"o":"m 232 945 q 232 961 232 945 q 249 995 232 978 q 293 1011 266 1011 q 338 995 321 1011 q 356 945 356 978 q 338 895 356 912 q 294 878 321 878 q 249 895 267 878 q 232 945 232 912 m 507 995 q 516 1003 507 995 q 551 1011 524 1011 q 596 995 578 1011 q 614 945 614 978 q 596 895 614 912 q 551 878 578 878 q 508 895 525 878 q 490 945 490 912 q 507 995 490 978 m 733 0 l 640 0 l 624 100 l 618 100 q 522 16 583 45 q 382 -14 461 -14 q 178 52 244 -14 q 111 257 111 117 l 111 743 l 225 743 l 225 261 q 267 125 225 170 q 396 81 309 81 q 567 145 513 81 q 621 353 621 209 l 621 743 l 733 743 l 733 0 z "},"ý":{"ha":700,"x_min":1,"x_max":699,"o":"m 545 1064 l 545 1050 q 456 941 515 1005 q 354 842 397 876 l 279 842 l 279 859 q 349 960 311 901 q 408 1064 387 1020 l 545 1064 m 113 -334 q 11 -322 62 -334 l 11 -232 q 94 -240 49 -240 q 260 -110 210 -240 l 301 -4 l 1 743 l 122 743 l 285 319 q 351 110 337 178 l 357 110 q 391 219 367 148 q 578 743 414 290 l 699 743 l 379 -103 q 269 -280 332 -227 q 113 -334 206 -334 z "},"þ":{"ha":851,"x_min":119,"x_max":774,"o":"m 232 1055 l 232 739 q 228 643 232 704 l 233 643 q 464 757 317 757 q 692 655 611 757 q 774 372 774 553 q 692 89 774 191 q 463 -14 610 -14 q 232 96 315 -14 l 224 96 l 227 73 q 232 -22 232 17 l 232 -334 l 119 -334 l 119 1055 l 232 1055 m 232 372 q 284 149 232 216 q 452 81 336 81 q 657 374 657 81 q 607 591 657 520 q 447 661 556 661 q 285 599 337 661 q 232 400 233 537 l 232 372 z "},"ÿ":{"ha":700,"x_min":1,"x_max":699,"o":"m 159 945 q 159 961 159 945 q 176 995 159 978 q 220 1011 193 1011 q 265 995 248 1011 q 283 945 283 978 q 265 895 283 912 q 220 878 248 878 q 176 895 193 878 q 159 945 159 912 m 434 995 q 443 1003 434 995 q 478 1011 451 1011 q 523 995 505 1011 q 541 945 541 978 q 523 895 541 912 q 478 878 505 878 q 434 895 452 878 q 417 945 417 912 q 434 995 417 978 m 113 -334 q 11 -322 62 -334 l 11 -232 q 94 -240 49 -240 q 260 -110 210 -240 l 301 -4 l 1 743 l 122 743 l 285 319 q 351 110 337 178 l 357 110 q 391 219 367 148 q 578 743 414 290 l 699 743 l 379 -103 q 269 -280 332 -227 q 113 -334 206 -334 z "},"ı":{"ha":351,"x_min":119,"x_max":232,"o":"m 232 0 l 119 0 l 119 743 l 232 743 l 232 0 z "},"Œ":{"ha":1282,"x_min":85,"x_max":1198,"o":"m 1198 0 l 677 0 q 546 -14 606 -14 q 204 120 324 -14 q 85 498 85 253 q 203 875 85 743 q 538 1007 321 1007 q 668 991 606 1007 l 1198 991 l 1198 889 l 799 889 l 799 570 l 1173 570 l 1173 468 l 799 468 l 799 103 l 1198 103 l 1198 0 m 550 904 q 294 801 381 904 q 207 496 207 697 q 294 192 207 296 q 549 87 381 87 q 684 110 625 87 l 684 884 q 550 904 625 904 z "},"œ":{"ha":1308,"x_min":77,"x_max":1236,"o":"m 970 -14 q 686 146 770 -14 q 574 27 644 67 q 410 -14 503 -14 q 167 90 258 -14 q 77 373 77 194 q 166 654 77 552 q 414 755 255 755 q 572 715 503 755 q 684 597 642 675 q 788 715 723 674 q 939 755 854 755 q 1156 666 1075 755 q 1236 422 1236 576 l 1236 351 l 742 351 q 971 85 747 85 q 1203 135 1091 85 l 1203 35 q 1092 -3 1143 8 q 970 -14 1040 -14 m 625 371 q 625 444 625 371 q 573 589 625 517 q 409 661 520 661 q 246 589 298 661 q 195 372 195 517 q 247 154 195 227 q 410 81 299 81 q 573 152 520 81 q 625 371 625 224 m 1114 443 q 1069 606 1114 550 q 938 661 1024 661 q 802 606 851 661 q 745 443 753 550 l 1114 443 z "},"Š":{"ha":762,"x_min":72,"x_max":696,"o":"m 163 1293 l 241 1293 q 389 1165 318 1244 q 539 1293 479 1255 l 620 1293 l 620 1276 l 575 1230 q 446 1071 478 1130 l 334 1071 q 284 1141 319 1098 q 163 1276 249 1184 l 163 1293 m 347 87 q 520 131 461 87 q 579 253 579 174 q 559 337 579 304 q 490 398 538 370 q 342 461 441 425 q 144 578 203 511 q 85 758 85 646 q 171 938 85 869 q 401 1006 256 1006 q 671 951 546 1006 l 635 851 q 396 903 513 903 q 253 863 304 903 q 201 754 201 824 q 220 670 201 703 q 284 610 239 637 q 422 549 329 583 q 636 430 576 494 q 696 264 696 367 q 601 60 696 134 q 336 -14 507 -14 q 72 32 165 -14 l 72 143 q 347 87 203 87 z "},"š":{"ha":663,"x_min":72,"x_max":599,"o":"m 112 1064 l 190 1064 q 338 936 267 1015 q 488 1064 428 1025 l 569 1064 l 569 1047 l 524 1001 q 395 842 427 901 l 283 842 q 233 912 268 869 q 112 1047 198 955 l 112 1064 m 307 79 q 490 193 490 79 q 453 268 490 237 q 306 340 415 298 q 159 408 201 379 q 72 558 72 465 q 146 704 72 652 q 344 757 220 757 q 583 708 468 757 l 543 616 q 346 663 431 663 q 220 638 262 663 q 179 568 179 613 q 194 517 179 538 q 243 477 209 496 q 374 422 277 458 q 551 327 503 375 q 599 203 599 279 q 522 43 599 99 q 301 -14 445 -14 q 74 33 157 -14 l 74 138 q 307 79 189 79 z "},"Ÿ":{"ha":778,"x_min":0,"x_max":778,"o":"m 199 1174 q 199 1191 199 1174 q 216 1224 199 1207 q 261 1240 233 1240 q 306 1224 288 1240 q 323 1174 323 1207 q 306 1124 323 1141 q 261 1107 288 1107 q 217 1124 234 1107 q 199 1174 199 1141 m 475 1224 q 483 1232 475 1224 q 519 1240 492 1240 q 564 1224 546 1240 q 581 1174 581 1207 q 563 1124 581 1141 q 519 1107 545 1107 q 475 1124 492 1107 q 458 1174 458 1141 q 475 1224 458 1207 m 447 0 l 330 0 l 330 379 l 0 991 l 126 991 l 389 496 l 653 991 l 778 991 l 447 385 l 447 0 z "},"Ž":{"ha":793,"x_min":56,"x_max":737,"o":"m 169 1293 l 247 1293 q 395 1165 324 1244 q 545 1293 485 1255 l 626 1293 l 626 1276 l 581 1230 q 452 1071 484 1130 l 340 1071 q 290 1141 325 1098 q 169 1276 255 1184 l 169 1293 m 737 104 l 737 0 l 56 0 l 56 90 l 582 888 l 72 888 l 72 991 l 722 991 l 722 901 l 196 104 l 737 104 z "},"ž":{"ha":650,"x_min":56,"x_max":595,"o":"m 99 1064 l 177 1064 q 326 936 254 1015 q 475 1064 415 1025 l 556 1064 l 556 1047 l 511 1001 q 382 842 414 901 l 270 842 q 220 912 255 869 q 99 1047 185 955 l 99 1064 m 595 87 l 595 0 l 56 0 l 56 77 l 461 656 l 81 656 l 81 743 l 585 743 l 585 656 l 184 87 l 595 87 z "},"ƒ":{"ha":802,"x_min":132,"x_max":710,"o":"m 338 753 q 393 946 338 886 q 571 1006 448 1006 q 710 977 629 1006 l 681 889 q 571 911 610 911 q 478 875 505 911 q 450 755 450 840 l 450 654 l 642 654 l 642 567 l 453 567 l 453 -90 q 399 -275 453 -216 q 222 -334 346 -334 q 132 -321 175 -334 l 132 -227 q 221 -239 180 -239 q 311 -205 285 -239 q 338 -93 338 -171 l 338 567 l 187 567 l 187 618 l 338 658 l 338 753 z "},"ˆ":{"ha":822,"x_min":182,"x_max":639,"o":"m 639 842 l 558 842 q 408 968 500 878 q 260 842 316 878 l 182 842 l 182 857 q 304 995 269 951 q 353 1064 338 1038 l 465 1064 q 517 991 481 1034 q 639 857 549 951 l 639 842 z "},"ˇ":{"ha":822,"x_min":182,"x_max":639,"o":"m 182 1064 l 260 1064 q 408 936 337 1015 q 558 1064 498 1025 l 639 1064 l 639 1047 l 594 1001 q 465 842 497 901 l 353 842 q 303 912 338 869 q 182 1047 268 955 l 182 1064 z "},"˘":{"ha":822,"x_min":199,"x_max":619,"o":"m 619 1023 q 556 890 612 938 q 405 842 499 842 q 258 888 311 842 q 199 1023 205 935 l 269 1023 q 326 943 277 960 q 413 935 350 935 q 509 956 476 935 q 549 1023 542 977 l 619 1023 z "},"˙":{"ha":351,"x_min":110,"x_max":243,"o":"m 110 945 q 110 964 110 945 q 128 1001 110 982 q 176 1019 146 1019 q 224 1000 205 1019 q 243 945 243 981 q 224 889 243 908 q 176 869 205 869 q 128 889 146 869 q 110 945 110 908 z "},"˚":{"ha":802,"x_min":249,"x_max":551,"o":"m 249 987 q 249 1021 249 987 q 290 1093 249 1054 q 399 1132 331 1132 q 509 1092 467 1132 q 551 987 551 1052 q 510 882 551 922 q 399 842 468 842 q 290 881 330 842 q 249 987 249 921 m 456 1046 q 445 1056 456 1046 q 399 1067 434 1067 q 341 1046 363 1067 q 319 987 319 1025 q 340 929 319 949 q 397 908 360 908 q 456 929 435 908 q 478 987 478 950 q 456 1046 478 1025 z "},"˛":{"ha":273,"x_min":25,"x_max":250,"o":"m 121 -161 q 184 -225 121 -225 q 250 -216 214 -225 l 250 -290 q 165 -302 206 -302 q 25 -175 25 -302 q 54 -83 25 -129 q 132 0 82 -37 l 214 0 q 143 -84 165 -47 q 121 -161 121 -121 z "},"˜":{"ha":822,"x_min":179,"x_max":684,"o":"m 534 843 q 423 884 494 843 q 387 905 397 899 q 320 924 350 924 q 273 904 290 924 q 245 842 256 884 l 179 842 q 227 970 188 924 q 328 1017 266 1017 q 444 977 374 1017 q 460 966 454 970 q 474 959 467 963 q 485 954 481 955 q 494 949 488 952 q 504 944 500 945 q 513 941 508 943 q 523 938 519 939 q 541 936 535 936 q 589 955 572 936 q 616 1018 606 974 l 684 1018 q 636 889 675 935 q 534 843 597 843 z "},"˝":{"ha":802,"x_min":157,"x_max":644,"o":"m 403 1064 l 403 1050 q 320 941 378 1008 q 222 842 262 875 l 157 842 l 157 859 q 219 956 182 892 q 277 1064 256 1019 l 403 1064 m 644 1064 l 644 1050 q 562 941 620 1008 q 464 842 504 875 l 399 842 l 399 859 q 465 963 431 903 q 518 1064 499 1023 l 644 1064 z "},"́":{"ha":0,"x_min":-512,"x_max":-245,"o":"m -245 1064 l -245 1050 q -335 941 -276 1005 q -437 842 -394 876 l -512 842 l -512 859 q -442 960 -479 901 q -382 1064 -404 1020 l -245 1064 z "},"̃":{"ha":0,"x_min":-677,"x_max":-173,"o":"m -322 843 q -433 884 -363 843 q -470 905 -459 899 q -536 924 -507 924 q -584 904 -566 924 q -611 842 -601 884 l -677 842 q -630 970 -669 924 q -529 1017 -591 1017 q -413 977 -482 1017 q -396 966 -403 970 q -382 959 -389 963 q -372 954 -375 955 q -362 949 -369 952 q -352 944 -356 945 q -343 941 -349 943 q -334 938 -338 939 q -316 936 -321 936 q -268 955 -284 936 q -240 1018 -251 974 l -173 1018 q -220 889 -182 935 q -322 843 -259 843 z "},"μ":{"ha":860,"x_min":119,"x_max":741,"o":"m 741 0 l 648 0 l 631 100 l 624 100 q 393 -14 549 -14 q 232 49 292 -14 l 225 49 q 232 -117 232 -5 l 232 -334 l 119 -334 l 119 743 l 232 743 l 232 258 q 404 81 232 81 q 574 145 521 81 q 628 353 628 210 l 628 743 l 741 743 l 741 0 z "},"ְ":{"ha":0,"x_min":377,"x_max":474,"o":"m 425 -62 q 474 -121 474 -62 q 425 -180 474 -180 q 377 -121 377 -180 q 425 -62 377 -62 m 425 -268 q 474 -327 474 -268 q 425 -385 474 -385 q 377 -327 377 -385 q 425 -268 377 -268 z "},"ֱ":{"ha":0,"x_min":188,"x_max":707,"o":"m 235 -62 q 285 -121 285 -62 q 235 -180 285 -180 q 188 -121 188 -180 q 235 -62 188 -62 m 459 -62 q 509 -121 509 -62 q 459 -180 509 -180 q 412 -121 412 -180 q 459 -62 412 -62 m 658 -62 q 707 -121 707 -62 q 658 -180 707 -180 q 610 -121 610 -180 q 658 -62 610 -62 m 347 -268 q 396 -327 396 -268 q 347 -385 396 -385 q 299 -327 299 -385 q 347 -268 299 -268 m 658 -268 q 707 -327 707 -268 q 658 -385 707 -385 q 610 -327 610 -385 q 658 -268 610 -268 z "},"ֲ":{"ha":0,"x_min":214,"x_max":661,"o":"m 612 -62 q 661 -121 661 -62 q 612 -180 661 -180 q 564 -121 564 -180 q 612 -62 564 -62 m 492 -149 l 214 -149 l 214 -93 l 492 -93 l 492 -149 m 612 -268 q 661 -327 661 -268 q 612 -385 661 -385 q 564 -327 564 -385 q 612 -268 564 -268 z "},"ֳ":{"ha":0,"x_min":214,"x_max":661,"o":"m 612 -62 q 661 -121 661 -62 q 612 -180 661 -180 q 564 -121 564 -180 q 612 -62 564 -62 m 492 -149 l 381 -149 l 381 -306 l 326 -306 l 326 -149 l 214 -149 l 214 -93 l 492 -93 l 492 -149 m 612 -268 q 661 -327 661 -268 q 612 -385 661 -385 q 564 -327 564 -385 q 612 -268 564 -268 z "},"ִ":{"ha":0,"x_min":377,"x_max":474,"o":"m 425 -62 q 474 -121 474 -62 q 425 -180 474 -180 q 377 -121 377 -180 q 425 -62 377 -62 z "},"ֵ":{"ha":0,"x_min":265,"x_max":586,"o":"m 313 -62 q 362 -121 362 -62 q 313 -180 362 -180 q 265 -121 265 -180 q 313 -62 265 -62 m 536 -62 q 586 -121 586 -62 q 536 -180 586 -180 q 489 -121 489 -180 q 536 -62 489 -62 z "},"ֶ":{"ha":0,"x_min":266,"x_max":587,"o":"m 313 -62 q 363 -121 363 -62 q 313 -180 363 -180 q 266 -121 266 -180 q 313 -62 266 -62 m 537 -62 q 587 -121 587 -62 q 537 -180 587 -180 q 490 -121 490 -180 q 537 -62 490 -62 m 425 -268 q 474 -327 474 -268 q 425 -385 474 -385 q 377 -327 377 -385 q 425 -268 377 -268 z "},"ַ":{"ha":0,"x_min":286,"x_max":564,"o":"m 564 -142 l 286 -142 l 286 -87 l 564 -87 l 564 -142 z "},"ָ":{"ha":0,"x_min":286,"x_max":564,"o":"m 564 -142 l 452 -142 l 452 -300 l 397 -300 l 397 -142 l 286 -142 l 286 -87 l 564 -87 l 564 -142 z "},"ֹ":{"ha":0,"x_min":377,"x_max":474,"o":"m 425 1061 q 474 1002 474 1061 q 425 943 474 943 q 377 1002 377 943 q 425 1061 377 1061 z "},"ֺ":{"ha":0,"x_min":377,"x_max":474,"o":"m 425 1061 q 474 1002 474 1061 q 425 943 474 943 q 377 1002 377 943 q 425 1061 377 1061 z "},"ֻ":{"ha":0,"x_min":266,"x_max":587,"o":"m 313 -62 q 363 -121 363 -62 q 313 -180 363 -180 q 266 -121 266 -180 q 313 -62 266 -62 m 425 -165 q 474 -223 474 -165 q 425 -282 474 -282 q 377 -223 377 -282 q 425 -165 377 -165 m 537 -268 q 587 -327 587 -268 q 537 -385 587 -385 q 490 -327 490 -385 q 537 -268 490 -268 z "},"ּ":{"ha":0,"x_min":377,"x_max":474,"o":"m 425 498 q 474 440 474 498 q 425 381 474 381 q 377 440 377 381 q 425 498 377 498 z "},"ֽ":{"ha":852,"x_min":391,"x_max":460,"o":"m 460 -345 l 391 -345 l 391 -106 l 460 -106 l 460 -345 z "},"־":{"ha":447,"x_min":57,"x_max":390,"o":"m 390 772 l 57 772 l 57 875 l 390 875 l 390 772 z "},"ׁ":{"ha":0,"x_min":340,"x_max":437,"o":"m 388 1061 q 437 1002 437 1061 q 388 943 437 943 q 340 1002 340 943 q 388 1061 340 1061 z "},"ׂ":{"ha":0,"x_min":377,"x_max":474,"o":"m 425 1061 q 474 1002 474 1061 q 425 943 474 943 q 377 1002 377 943 q 425 1061 377 1061 z "},"ׇ":{"ha":0,"x_min":75,"x_max":353,"o":"m 353 -142 l 244 -142 l 244 -301 l 181 -301 l 181 -142 l 75 -142 l 75 -75 l 353 -75 l 353 -142 z "},"א":{"ha":785,"x_min":62,"x_max":722,"o":"m 707 875 l 707 591 q 703 495 707 535 q 683 410 698 454 q 553 280 652 319 l 722 0 l 595 0 l 382 366 l 279 520 q 239 500 252 510 q 175 325 175 448 l 175 0 l 62 0 l 62 284 q 106 505 62 433 q 156 559 124 534 q 231 600 187 585 l 63 875 l 191 875 l 391 536 l 505 361 q 556 403 539 381 q 584 462 572 425 q 595 550 595 499 l 595 875 l 707 875 z "},"ב":{"ha":741,"x_min":69,"x_max":709,"o":"m 69 878 q 323 888 178 888 q 539 825 469 888 q 609 610 609 762 l 609 87 l 709 87 l 709 0 l 69 0 l 69 87 l 496 87 l 496 612 q 449 754 496 716 q 304 793 402 793 q 104 785 199 793 l 69 783 l 69 878 z "},"ג":{"ha":581,"x_min":47,"x_max":477,"o":"m 227 798 q 144 785 190 798 l 144 874 q 265 888 198 888 q 477 656 477 888 l 477 0 l 384 0 l 371 148 l 366 148 q 350 119 362 140 q 325 84 337 99 q 293 50 313 68 q 252 18 273 32 q 202 -4 231 5 q 142 -14 173 -14 q 47 -5 79 -14 l 64 98 q 157 90 92 90 q 258 129 204 90 q 349 258 321 177 q 364 359 364 304 l 364 646 q 328 764 364 728 q 227 798 295 798 z "},"ד":{"ha":701,"x_min":29,"x_max":668,"o":"m 668 875 l 668 798 q 528 602 528 758 l 528 0 l 416 0 l 416 602 q 425 676 416 642 q 448 728 435 709 q 498 779 476 768 l 508 784 l 508 787 l 29 787 l 29 875 l 668 875 z "},"ה":{"ha":852,"x_min":109,"x_max":748,"o":"m 731 718 q 748 610 748 671 l 748 0 l 635 0 l 635 612 q 393 793 635 793 q 156 785 286 793 l 109 783 l 109 878 q 398 888 267 888 q 614 849 529 888 q 731 718 699 809 m 221 0 l 109 0 l 109 558 l 221 558 l 221 0 z "},"ו":{"ha":330,"x_min":109,"x_max":221,"o":"m 221 0 l 109 0 l 109 875 l 221 875 l 221 0 z "},"ז":{"ha":415,"x_min":76,"x_max":383,"o":"m 383 875 l 383 787 q 372 781 379 785 q 348 756 366 777 q 318 709 331 736 q 294 631 304 682 q 283 519 283 581 l 283 0 l 170 0 l 170 517 q 182 611 170 566 q 211 686 194 656 q 274 773 247 750 l 286 784 l 286 787 l 76 787 l 76 875 l 383 875 z "},"ח":{"ha":852,"x_min":109,"x_max":748,"o":"m 109 0 l 109 878 q 408 888 267 888 q 612 850 529 888 q 731 718 699 809 q 748 610 748 671 l 748 0 l 635 0 l 635 612 q 393 793 635 793 l 221 787 l 221 0 l 109 0 z "},"ט":{"ha":849,"x_min":104,"x_max":787,"o":"m 608 721 q 597 737 608 721 q 547 774 585 753 q 455 794 509 794 q 361 787 401 794 l 361 880 q 457 888 401 888 q 563 872 514 888 q 654 820 612 856 q 724 732 695 785 q 787 437 787 623 q 769 270 787 345 q 721 142 751 194 q 646 55 690 90 q 553 3 603 19 q 446 -14 503 -14 q 338 3 389 -14 q 245 55 288 19 q 171 142 201 90 q 122 270 140 194 q 104 437 104 345 l 104 875 l 221 875 l 221 437 q 267 193 221 290 q 336 110 291 140 q 439 81 382 81 q 537 101 497 81 q 601 154 576 121 q 642 235 626 187 q 669 437 669 318 q 665 544 669 496 q 646 640 660 592 q 608 721 631 688 z "},"י":{"ha":307,"x_min":100,"x_max":212,"o":"m 100 296 l 100 875 l 212 875 l 212 411 l 123 296 l 100 296 z "},"ך":{"ha":659,"x_min":29,"x_max":555,"o":"m 115 879 q 140 884 115 879 q 222 888 165 888 q 327 875 279 888 q 409 839 375 861 q 468 784 442 816 q 510 719 494 753 q 537 648 526 686 q 555 513 555 583 l 555 -334 l 442 -334 l 442 499 q 423 643 442 585 q 398 696 415 668 q 359 744 382 725 q 301 776 337 763 q 216 789 266 789 q 118 780 166 789 q 50 763 70 772 l 29 754 l 29 854 q 51 864 37 859 q 115 879 65 869 z "},"כ":{"ha":633,"x_min":45,"x_max":570,"o":"m 131 879 q 155 884 131 879 q 237 888 180 888 q 342 875 294 888 q 424 839 391 861 q 484 784 458 816 q 526 719 510 753 q 552 648 542 686 q 570 513 570 583 l 570 364 q 563 276 570 323 q 544 196 555 229 q 506 121 532 162 q 447 53 481 81 q 357 6 412 25 q 239 -14 301 -14 q 131 -7 178 -14 q 64 5 83 -1 l 45 12 l 45 113 q 239 85 134 85 q 314 97 281 85 q 370 127 348 109 q 409 172 392 145 q 435 223 426 198 q 449 277 444 248 q 458 366 458 319 l 458 499 q 439 643 458 585 q 414 696 431 668 q 375 744 397 725 q 317 776 353 763 q 232 789 281 789 q 134 780 182 789 q 65 763 85 772 l 45 754 l 45 854 q 66 864 52 859 q 131 879 81 869 z "},"ל":{"ha":661,"x_min":47,"x_max":621,"o":"m 160 875 l 621 875 l 621 787 l 503 340 l 433 0 l 319 0 l 389 340 l 508 787 l 47 787 l 47 1054 l 160 1054 l 160 875 z "},"ם":{"ha":852,"x_min":109,"x_max":748,"o":"m 109 0 l 109 870 q 408 888 227 888 q 748 650 748 888 l 748 0 l 109 0 m 635 87 l 635 633 q 621 706 635 676 q 586 753 607 736 q 530 779 564 770 q 465 790 495 788 q 396 793 435 793 q 246 787 313 793 l 221 785 l 221 87 l 635 87 z "},"מ":{"ha":833,"x_min":69,"x_max":728,"o":"m 472 888 q 664 811 600 888 q 728 598 728 734 l 728 0 l 430 0 l 430 87 l 616 87 l 616 593 q 433 793 616 793 q 370 782 401 793 q 318 755 339 771 q 255 696 273 721 l 247 685 l 182 0 l 69 0 l 133 673 q 133 688 133 675 q 123 750 133 700 q 100 833 114 800 l 82 875 l 195 875 q 227 783 214 844 l 231 783 q 316 852 267 825 q 384 877 342 865 q 472 888 426 888 z "},"ן":{"ha":314,"x_min":50,"x_max":210,"o":"m 97 609 q 50 873 97 742 l 162 873 q 175 837 168 861 q 196 745 183 814 q 210 609 210 675 l 210 -334 l 97 -334 l 97 609 z "},"נ":{"ha":596,"x_min":62,"x_max":492,"o":"m 241 798 q 159 785 205 798 l 159 874 q 280 888 213 888 q 492 656 492 888 l 492 214 q 485 105 492 159 q 472 26 479 52 l 465 0 l 62 0 l 62 87 l 365 87 q 378 214 378 138 l 378 646 q 343 764 378 728 q 241 798 311 798 z "},"ס":{"ha":807,"x_min":62,"x_max":745,"o":"m 404 888 q 653 777 561 888 q 745 437 745 665 q 727 270 745 345 q 679 142 709 194 q 604 55 648 90 q 511 3 561 19 q 404 -14 460 -14 q 296 3 347 -14 q 203 55 246 19 q 129 142 159 90 q 80 270 98 194 q 62 437 62 345 q 91 652 62 564 q 163 787 120 740 l 76 781 l 76 877 q 404 888 219 888 m 282 791 q 205 634 231 734 q 179 450 179 534 q 190 305 179 365 q 224 192 200 245 q 294 110 249 140 q 404 81 340 81 q 513 110 467 81 q 583 193 558 140 q 628 437 628 290 q 563 720 628 633 q 498 772 538 752 q 404 792 457 792 l 282 791 z "},"ע":{"ha":852,"x_min":47,"x_max":783,"o":"m 224 875 l 328 480 q 410 117 347 393 q 636 493 608 190 l 670 874 l 783 874 l 749 493 q 724 343 743 406 q 685 242 705 281 q 630 162 665 203 q 551 90 595 121 q 442 35 507 60 q 298 0 377 11 l 47 -35 l 47 54 l 313 95 l 107 875 l 224 875 z "},"ף":{"ha":818,"x_min":47,"x_max":713,"o":"m 47 576 q 76 711 47 650 q 153 810 105 772 q 258 868 200 848 q 382 888 316 888 q 509 862 449 888 q 615 782 568 835 q 687 640 661 728 q 713 437 713 552 l 713 -334 l 602 -334 l 602 437 q 556 682 602 585 q 486 765 532 735 q 384 794 441 794 q 288 780 328 794 q 223 744 248 766 q 182 692 198 722 q 151 576 151 638 q 192 438 151 485 q 322 375 233 391 l 352 370 l 334 286 l 308 290 q 118 378 189 305 q 47 576 47 451 z "},"פ":{"ha":795,"x_min":62,"x_max":733,"o":"m 62 576 q 91 711 62 650 q 168 810 120 772 q 273 868 215 848 q 390 888 331 888 q 499 872 449 888 q 593 820 549 856 q 667 733 636 785 q 715 605 698 681 q 733 437 733 530 q 715 270 733 345 q 667 142 698 194 q 593 54 636 90 q 392 -14 509 -14 q 171 0 277 -14 l 137 5 l 137 102 q 170 96 138 101 q 391 81 277 81 q 483 101 443 81 q 548 154 523 121 q 589 235 572 187 q 616 437 616 317 q 571 682 616 585 q 501 765 547 735 q 399 794 456 794 q 302 780 342 794 q 238 744 262 766 q 197 693 213 722 q 166 576 166 639 q 207 438 166 485 q 337 375 248 391 l 367 370 l 349 286 l 323 290 q 133 378 204 305 q 62 576 62 451 z "},"ץ":{"ha":650,"x_min":5,"x_max":581,"o":"m 469 604 l 469 874 l 581 874 l 581 644 q 526 414 581 490 q 469 359 505 385 q 382 321 432 334 l 300 299 l 300 -334 l 187 -334 l 187 391 l 5 875 l 125 875 l 275 458 q 294 389 288 420 l 368 415 q 469 604 469 448 z "},"צ":{"ha":763,"x_min":44,"x_max":701,"o":"m 694 0 l 51 0 l 51 87 l 424 87 l 578 80 l 578 83 l 353 389 l 44 875 l 172 875 l 434 454 l 456 423 q 535 528 508 454 q 573 720 562 601 l 588 877 l 701 877 l 687 736 q 684 702 686 730 q 680 659 682 675 q 673 614 677 644 q 663 564 669 585 q 648 515 657 543 q 627 465 640 487 q 597 420 614 444 q 509 348 566 377 l 694 87 l 694 0 z "},"ק":{"ha":793,"x_min":109,"x_max":752,"o":"m 549 23 l 549 0 l 437 0 l 437 23 q 460 158 437 73 q 492 279 482 243 q 543 456 512 355 l 640 788 l 109 788 l 109 875 l 752 875 l 752 788 l 650 442 q 621 339 633 380 q 598 257 610 299 q 579 185 587 216 q 564 121 572 155 q 549 23 549 55 m 221 -334 l 109 -334 l 109 523 l 221 523 l 221 -334 z "},"ר":{"ha":658,"x_min":29,"x_max":554,"o":"m 29 884 q 199 888 124 888 q 325 879 275 888 q 418 850 374 870 q 491 798 461 829 q 554 610 554 729 l 554 0 l 441 0 l 441 612 q 199 793 441 793 q 29 788 125 793 l 29 884 z "},"ש":{"ha":999,"x_min":69,"x_max":938,"o":"m 450 87 q 681 187 589 87 q 791 493 772 287 l 826 874 l 938 874 l 905 493 q 877 337 898 405 q 833 225 856 269 q 774 140 811 182 q 691 67 737 97 q 578 19 645 37 q 432 0 511 0 l 142 0 l 69 875 l 183 875 l 224 386 l 314 416 q 434 604 418 450 l 460 875 l 573 875 l 551 645 q 538 562 546 599 q 514 485 531 525 q 473 415 497 445 q 410 360 449 385 q 319 322 370 335 l 231 298 l 248 87 l 450 87 z "},"ת":{"ha":879,"x_min":47,"x_max":774,"o":"m 115 -9 q 47 0 85 -9 l 47 93 q 102 86 97 86 q 199 201 199 86 l 199 780 l 104 771 l 104 867 q 435 888 293 888 q 638 850 555 888 q 758 718 725 809 q 774 610 774 671 l 774 0 l 661 0 l 661 612 q 419 793 661 793 q 312 789 389 793 l 312 217 q 263 50 312 110 q 115 -9 214 -9 z "},"׳":{"ha":236,"x_min":17,"x_max":220,"o":"m 220 860 q 100 535 182 714 l 17 535 q 86 875 64 726 l 210 875 l 220 860 z "},"״":{"ha":486,"x_min":17,"x_max":469,"o":"m 220 860 q 100 535 182 714 l 17 535 q 86 875 64 726 l 210 875 l 220 860 m 265 535 q 336 875 317 741 l 460 875 l 469 860 q 421 711 454 800 q 350 535 389 621 l 265 535 z "},"–":{"ha":694,"x_min":56,"x_max":639,"o":"m 639 321 l 56 321 l 56 424 l 639 424 l 639 321 z "},"—":{"ha":1389,"x_min":56,"x_max":1333,"o":"m 1333 321 l 56 321 l 56 424 l 1333 424 l 1333 321 z "},"‘":{"ha":236,"x_min":17,"x_max":220,"o":"m 17 666 q 136 991 52 804 l 220 991 q 150 652 176 823 l 25 652 l 17 666 z "},"’":{"ha":236,"x_min":17,"x_max":220,"o":"m 220 977 q 100 652 182 831 l 17 652 q 86 991 65 845 l 210 991 l 220 977 z "},"‚":{"ha":340,"x_min":43,"x_max":248,"o":"m 237 161 l 248 146 q 197 -11 231 79 q 127 -179 163 -100 l 43 -179 q 83 -5 62 -104 q 114 161 104 90 l 237 161 z "},"“":{"ha":486,"x_min":17,"x_max":469,"o":"m 17 666 q 136 991 52 804 l 220 991 q 150 652 176 823 l 25 652 l 17 666 m 469 991 q 400 652 421 806 l 275 652 l 265 666 q 386 991 302 809 l 469 991 z "},"”":{"ha":486,"x_min":17,"x_max":469,"o":"m 220 977 q 100 652 182 831 l 17 652 q 86 991 65 845 l 210 991 l 220 977 m 265 652 q 336 991 317 857 l 460 991 l 469 977 q 421 827 454 917 q 350 652 389 738 l 265 652 z "},"„":{"ha":562,"x_min":17,"x_max":469,"o":"m 210 161 l 220 146 q 169 -10 203 79 q 100 -178 136 -100 l 17 -178 q 86 161 65 16 l 210 161 m 265 -178 q 336 161 316 22 l 460 161 l 469 146 q 420 -5 454 87 q 350 -178 387 -96 l 265 -178 z "},"†":{"ha":697,"x_min":83,"x_max":614,"o":"m 375 772 l 614 793 l 614 677 l 375 699 l 408 0 l 275 0 l 309 699 l 83 677 l 83 793 l 309 772 l 275 1055 l 408 1055 l 375 772 z "},"‡":{"ha":708,"x_min":83,"x_max":625,"o":"m 386 798 l 625 818 l 625 704 l 386 725 l 415 533 l 386 330 l 625 351 l 625 237 l 386 257 l 419 0 l 285 0 l 318 257 l 83 237 l 83 351 l 318 330 l 289 533 l 318 725 l 83 704 l 83 818 l 318 798 l 285 1055 l 419 1055 l 386 798 z "},"•":{"ha":522,"x_min":111,"x_max":411,"o":"m 111 508 q 111 549 111 508 q 150 632 111 589 q 260 674 188 674 q 372 632 333 674 q 411 508 411 590 q 372 383 411 427 q 261 339 333 339 q 150 383 189 339 q 111 508 111 427 z "},"…":{"ha":1089,"x_min":103,"x_max":986,"o":"m 103 71 q 103 94 103 71 q 124 140 103 117 q 183 164 144 164 q 244 140 222 164 q 267 72 267 117 q 244 4 267 28 q 184 -20 222 -20 q 125 3 146 -20 q 103 71 103 25 m 463 71 q 463 94 463 71 q 483 140 463 117 q 543 164 504 164 q 604 140 582 164 q 626 72 626 117 q 604 4 626 28 q 544 -20 582 -20 q 484 3 506 -20 q 463 71 463 25 m 823 71 q 823 94 823 71 q 843 140 823 117 q 903 164 864 164 q 964 140 942 164 q 986 72 986 117 q 964 4 986 28 q 904 -20 942 -20 q 844 3 866 -20 q 823 71 823 25 z "},"‰":{"ha":1670,"x_min":67,"x_max":1603,"o":"m 279 1006 q 438 924 382 1006 q 494 691 494 842 q 440 462 494 541 q 282 383 386 383 q 122 464 178 383 q 67 696 67 545 q 279 1006 67 1006 m 363 0 l 262 0 l 812 991 l 913 991 l 363 0 m 279 925 q 189 869 217 925 q 160 695 160 812 q 189 522 160 578 q 279 465 217 465 q 401 695 401 465 q 279 925 401 925 m 890 608 q 1049 528 993 608 q 1105 295 1105 448 q 1051 65 1105 143 q 892 -14 996 -14 q 734 67 789 -14 q 679 298 679 148 q 890 608 679 608 m 1388 608 q 1546 528 1490 608 q 1603 295 1603 448 q 1548 65 1603 143 q 1390 -14 1493 -14 q 1232 67 1287 -14 q 1177 298 1177 149 q 1388 608 1177 608 m 890 526 q 800 471 828 526 q 772 298 772 416 q 800 124 772 180 q 890 67 828 67 q 1013 297 1013 67 q 890 526 1013 526 m 1388 526 q 1297 471 1325 526 q 1268 298 1268 416 q 1297 124 1268 181 q 1388 67 1325 67 q 1510 297 1510 67 q 1388 526 1510 526 z "},"‹":{"ha":422,"x_min":56,"x_max":368,"o":"m 368 603 l 172 366 l 368 127 l 288 79 l 56 355 l 56 374 l 288 650 l 368 603 z "},"›":{"ha":422,"x_min":54,"x_max":367,"o":"m 367 374 l 367 355 l 134 79 l 54 127 l 249 366 l 54 603 l 134 650 l 367 374 z "},"₪":{"ha":1088,"x_min":109,"x_max":983,"o":"m 109 874 l 433 874 q 562 862 509 874 q 653 820 614 850 q 728 610 728 762 l 728 262 l 616 262 l 616 612 q 562 755 616 718 q 502 780 534 774 q 446 787 469 787 q 417 787 422 787 l 221 787 l 221 0 l 109 0 l 109 874 m 983 874 l 983 493 q 962 319 983 404 q 874 140 936 215 q 794 67 840 97 q 683 18 749 37 q 538 0 617 0 l 360 0 l 360 612 l 473 612 l 473 87 l 556 87 q 778 181 692 87 q 846 308 821 229 q 870 493 870 388 l 870 874 l 983 874 z "},"€":{"ha":819,"x_min":43,"x_max":787,"o":"m 43 631 l 154 631 q 279 907 180 808 q 539 1006 378 1006 q 787 940 676 1006 l 739 846 q 539 904 625 904 q 269 631 323 904 l 615 631 l 615 543 l 260 543 l 258 505 l 258 461 l 260 431 l 574 431 l 574 343 l 271 343 q 365 153 296 219 q 545 87 435 87 q 758 132 654 87 l 758 31 q 543 -14 659 -14 q 285 77 383 -14 q 155 343 186 168 l 43 343 l 43 431 l 146 431 l 144 459 l 144 489 l 146 543 l 43 543 l 43 631 z "},"™":{"ha":1078,"x_min":25,"x_max":958,"o":"m 393 920 l 250 920 l 250 503 l 167 503 l 167 920 l 25 920 l 25 991 l 393 991 l 393 920 m 958 503 l 872 503 l 872 787 l 876 880 l 871 880 l 728 503 l 656 503 l 521 882 l 515 882 l 519 794 l 519 503 l 439 503 l 439 991 l 566 991 l 699 612 l 836 991 l 958 991 l 958 503 z "},"שׁ":{"ha":999,"x_min":69,"x_max":956,"o":"m 907 1089 q 956 1030 956 1089 q 907 972 956 972 q 859 1030 859 972 q 907 1089 859 1089 m 450 87 q 681 187 589 87 q 791 493 772 287 l 826 874 l 938 874 l 905 493 q 877 337 898 405 q 833 225 856 269 q 774 140 811 182 q 691 67 737 97 q 578 19 645 37 q 432 0 511 0 l 142 0 l 69 875 l 183 875 l 224 386 l 314 416 q 434 604 418 450 l 460 875 l 573 875 l 551 645 q 538 562 546 599 q 514 485 531 525 q 473 415 497 445 q 410 360 449 385 q 319 322 370 335 l 231 298 l 248 87 l 450 87 z "},"שׂ":{"ha":999,"x_min":56,"x_max":938,"o":"m 104 1089 q 153 1030 153 1089 q 104 972 153 972 q 56 1030 56 972 q 104 1089 56 1089 m 450 87 q 681 187 589 87 q 791 493 772 287 l 826 874 l 938 874 l 905 493 q 877 337 898 405 q 833 225 856 269 q 774 140 811 182 q 691 67 737 97 q 578 19 645 37 q 432 0 511 0 l 142 0 l 69 875 l 183 875 l 224 386 l 314 416 q 434 604 418 450 l 460 875 l 573 875 l 551 645 q 538 562 546 599 q 514 485 531 525 q 473 415 497 445 q 410 360 449 385 q 319 322 370 335 l 231 298 l 248 87 l 450 87 z "},"שּׁ":{"ha":999,"x_min":69,"x_max":956,"o":"m 907 1089 q 956 1030 956 1089 q 907 972 956 972 q 859 1030 859 972 q 907 1089 859 1089 m 450 87 q 681 187 589 87 q 791 493 772 287 l 826 874 l 938 874 l 905 493 q 877 337 898 405 q 833 225 856 269 q 774 140 811 182 q 691 67 737 97 q 578 19 645 37 q 432 0 511 0 l 142 0 l 69 875 l 183 875 l 224 386 l 314 416 q 434 604 418 450 l 460 875 l 573 875 l 551 645 q 538 562 546 599 q 514 485 531 525 q 473 415 497 445 q 410 360 449 385 q 319 322 370 335 l 231 298 l 248 87 l 450 87 m 545 352 q 595 293 595 352 q 545 235 595 235 q 498 293 498 235 q 545 352 498 352 z "},"שּׂ":{"ha":999,"x_min":56,"x_max":938,"o":"m 104 1089 q 153 1030 153 1089 q 104 972 153 972 q 56 1030 56 972 q 104 1089 56 1089 m 450 87 q 681 187 589 87 q 791 493 772 287 l 826 874 l 938 874 l 905 493 q 877 337 898 405 q 833 225 856 269 q 774 140 811 182 q 691 67 737 97 q 578 19 645 37 q 432 0 511 0 l 142 0 l 69 875 l 183 875 l 224 386 l 314 416 q 434 604 418 450 l 460 875 l 573 875 l 551 645 q 538 562 546 599 q 514 485 531 525 q 473 415 497 445 q 410 360 449 385 q 319 322 370 335 l 231 298 l 248 87 l 450 87 m 545 352 q 595 293 595 352 q 545 235 595 235 q 498 293 498 235 q 545 352 498 352 z "},"אַ":{"ha":785,"x_min":62,"x_max":722,"o":"m 707 875 l 707 591 q 703 495 707 535 q 683 410 698 454 q 553 280 652 319 l 722 0 l 595 0 l 382 366 l 279 520 q 239 500 252 510 q 175 325 175 448 l 175 0 l 62 0 l 62 284 q 106 505 62 433 q 156 559 124 534 q 231 600 187 585 l 63 875 l 191 875 l 391 536 l 505 361 q 556 403 539 381 q 584 462 572 425 q 595 550 595 499 l 595 875 l 707 875 m 530 -153 l 252 -153 l 252 -97 l 530 -97 l 530 -153 z "},"אָ":{"ha":785,"x_min":62,"x_max":722,"o":"m 707 875 l 707 591 q 703 495 707 535 q 683 410 698 454 q 553 280 652 319 l 722 0 l 595 0 l 382 366 l 279 520 q 239 500 252 510 q 175 325 175 448 l 175 0 l 62 0 l 62 284 q 106 505 62 433 q 156 559 124 534 q 231 600 187 585 l 63 875 l 191 875 l 391 536 l 505 361 q 556 403 539 381 q 584 462 572 425 q 595 550 595 499 l 595 875 l 707 875 m 530 -153 l 419 -153 l 419 -310 l 363 -310 l 363 -153 l 252 -153 l 252 -97 l 530 -97 l 530 -153 z "},"אּ":{"ha":785,"x_min":62,"x_max":722,"o":"m 707 875 l 707 591 q 703 495 707 535 q 683 410 698 454 q 553 280 652 319 l 722 0 l 595 0 l 382 366 l 279 520 q 239 500 252 510 q 175 325 175 448 l 175 0 l 62 0 l 62 284 q 106 505 62 433 q 156 559 124 534 q 231 600 187 585 l 63 875 l 191 875 l 391 536 l 505 361 q 556 403 539 381 q 584 462 572 425 q 595 550 595 499 l 595 875 l 707 875 m 315 313 q 365 254 365 313 q 315 195 365 195 q 268 254 268 195 q 315 313 268 313 z "},"בּ":{"ha":741,"x_min":69,"x_max":709,"o":"m 69 878 q 323 888 178 888 q 539 825 469 888 q 609 610 609 762 l 609 87 l 709 87 l 709 0 l 69 0 l 69 87 l 496 87 l 496 612 q 449 754 496 716 q 304 793 402 793 q 104 785 199 793 l 69 783 l 69 878 m 268 510 q 317 451 317 510 q 268 393 317 393 q 220 451 220 393 q 268 510 220 510 z "},"גּ":{"ha":581,"x_min":47,"x_max":477,"o":"m 227 798 q 144 785 190 798 l 144 874 q 265 888 198 888 q 477 656 477 888 l 477 0 l 384 0 l 371 148 l 366 148 q 350 119 362 140 q 325 84 337 99 q 293 50 313 68 q 252 18 273 32 q 202 -4 231 5 q 142 -14 173 -14 q 47 -5 79 -14 l 64 98 q 157 90 92 90 q 258 129 204 90 q 349 258 321 177 q 364 359 364 304 l 364 646 q 328 764 364 728 q 227 798 295 798 m 224 510 q 274 451 274 510 q 224 393 274 393 q 177 451 177 393 q 224 510 177 510 z "},"דּ":{"ha":701,"x_min":29,"x_max":668,"o":"m 668 875 l 668 798 q 528 602 528 758 l 528 0 l 416 0 l 416 602 q 425 676 416 642 q 448 728 435 709 q 498 779 476 768 l 508 784 l 508 787 l 29 787 l 29 875 l 668 875 m 229 510 q 278 451 278 510 q 229 393 278 393 q 181 451 181 393 q 229 510 181 510 z "},"הּ":{"ha":852,"x_min":109,"x_max":748,"o":"m 731 718 q 748 610 748 671 l 748 0 l 635 0 l 635 612 q 393 793 635 793 q 156 785 286 793 l 109 783 l 109 878 q 398 888 267 888 q 614 849 529 888 q 731 718 699 809 m 109 0 l 109 558 l 221 558 l 221 0 l 109 0 m 425 510 q 475 451 475 510 q 425 393 475 393 q 378 451 378 393 q 425 510 378 510 z "},"וּ":{"ha":330,"x_min":-69,"x_max":221,"o":"m 109 0 l 109 875 l 221 875 l 221 0 l 109 0 m -22 543 q 28 485 28 543 q -22 426 28 426 q -69 485 -69 426 q -22 543 -69 543 z "},"זּ":{"ha":415,"x_min":-16,"x_max":383,"o":"m 383 875 l 383 787 q 372 781 379 785 q 348 756 366 777 q 318 709 331 736 q 294 631 304 682 q 283 519 283 581 l 283 0 l 170 0 l 170 517 q 182 611 170 566 q 211 686 194 656 q 274 773 247 750 l 286 784 l 286 787 l 76 787 l 76 875 l 383 875 m 31 510 q 81 451 81 510 q 31 393 81 393 q -16 451 -16 393 q 31 510 -16 510 z "},"טּ":{"ha":849,"x_min":104,"x_max":787,"o":"m 608 721 q 597 737 608 721 q 547 774 585 753 q 455 794 509 794 q 361 787 401 794 l 361 880 q 457 888 401 888 q 563 872 514 888 q 654 820 612 856 q 724 732 695 785 q 787 437 787 623 q 769 270 787 345 q 721 142 751 194 q 646 55 690 90 q 553 3 603 19 q 446 -14 503 -14 q 338 3 389 -14 q 245 55 288 19 q 171 142 201 90 q 122 270 140 194 q 104 437 104 345 l 104 875 l 221 875 l 221 437 q 267 193 221 290 q 336 110 291 140 q 439 81 382 81 q 537 101 497 81 q 601 154 576 121 q 642 235 626 187 q 669 437 669 318 q 665 544 669 496 q 646 640 660 592 q 608 721 631 688 m 438 510 q 488 451 488 510 q 438 393 488 393 q 391 451 391 393 q 438 510 391 510 z "},"יּ":{"ha":307,"x_min":-73,"x_max":212,"o":"m 100 296 l 100 875 l 212 875 l 212 411 l 123 296 l 100 296 m -26 677 q 24 618 24 677 q -26 559 24 559 q -73 618 -73 559 q -26 677 -73 677 z "},"ךּ":{"ha":659,"x_min":29,"x_max":555,"o":"m 115 879 q 140 884 115 879 q 222 888 165 888 q 327 875 279 888 q 409 839 375 861 q 468 784 442 816 q 510 719 494 753 q 537 648 526 686 q 555 513 555 583 l 555 -334 l 442 -334 l 442 499 q 423 643 442 585 q 398 696 415 668 q 359 744 382 725 q 301 776 337 763 q 216 789 266 789 q 118 780 166 789 q 50 763 70 772 l 29 754 l 29 854 q 51 864 37 859 q 115 879 65 869 m 214 510 q 264 451 264 510 q 214 393 264 393 q 167 451 167 393 q 214 510 167 510 z "},"כּ":{"ha":633,"x_min":45,"x_max":570,"o":"m 131 879 q 155 884 131 879 q 237 888 180 888 q 342 875 294 888 q 424 839 391 861 q 484 784 458 816 q 526 719 510 753 q 552 648 542 686 q 570 513 570 583 l 570 364 q 563 276 570 323 q 544 196 555 229 q 506 121 532 162 q 447 53 481 81 q 357 6 412 25 q 239 -14 301 -14 q 131 -7 178 -14 q 64 5 83 -1 l 45 12 l 45 113 q 239 85 134 85 q 314 97 281 85 q 370 127 348 109 q 409 172 392 145 q 435 223 426 198 q 449 277 444 248 q 458 366 458 319 l 458 499 q 439 643 458 585 q 414 696 431 668 q 375 744 397 725 q 317 776 353 763 q 232 789 281 789 q 134 780 182 789 q 65 763 85 772 l 45 754 l 45 854 q 66 864 52 859 q 131 879 81 869 m 231 510 q 280 451 280 510 q 231 393 280 393 q 183 451 183 393 q 231 510 183 510 z "},"לּ":{"ha":661,"x_min":47,"x_max":621,"o":"m 621 875 l 621 787 l 503 340 l 433 0 l 319 0 l 389 340 l 508 787 l 47 787 l 47 1054 l 160 1054 l 160 875 l 621 875 m 198 510 q 248 451 248 510 q 198 393 248 393 q 151 451 151 393 q 198 510 151 510 z "},"מּ":{"ha":833,"x_min":69,"x_max":728,"o":"m 472 888 q 664 811 600 888 q 728 598 728 734 l 728 0 l 430 0 l 430 87 l 616 87 l 616 593 q 433 793 616 793 q 370 782 401 793 q 318 755 339 771 q 255 696 273 721 l 247 685 l 182 0 l 69 0 l 133 673 q 133 688 133 675 q 123 750 133 700 q 100 833 114 800 l 82 875 l 195 875 q 227 783 214 844 l 231 783 q 316 852 267 825 q 384 877 342 865 q 472 888 426 888 m 415 510 q 465 451 465 510 q 415 393 465 393 q 368 451 368 393 q 415 510 368 510 z "},"נּ":{"ha":596,"x_min":62,"x_max":492,"o":"m 241 798 q 159 785 205 798 l 159 874 q 280 888 213 888 q 492 656 492 888 l 492 214 q 485 105 492 159 q 472 26 479 52 l 465 0 l 62 0 l 62 87 l 365 87 q 378 214 378 138 l 378 646 q 343 764 378 728 q 241 798 311 798 m 190 510 q 239 451 239 510 q 190 393 239 393 q 142 451 142 393 q 190 510 142 510 z "},"סּ":{"ha":807,"x_min":62,"x_max":745,"o":"m 404 888 q 653 777 561 888 q 745 437 745 665 q 727 270 745 345 q 679 142 709 194 q 604 55 648 90 q 511 3 561 19 q 404 -14 460 -14 q 296 3 347 -14 q 203 55 246 19 q 129 142 159 90 q 80 270 98 194 q 62 437 62 345 q 91 652 62 564 q 163 787 120 740 l 76 781 l 76 877 q 404 888 219 888 m 282 791 q 205 634 231 734 q 179 450 179 534 q 190 305 179 365 q 224 192 200 245 q 294 110 249 140 q 404 81 340 81 q 513 110 467 81 q 583 193 558 140 q 628 437 628 290 q 563 720 628 633 q 498 772 538 752 q 404 792 457 792 l 282 791 m 402 510 q 452 451 452 510 q 402 393 452 393 q 355 451 355 393 q 402 510 355 510 z "},"ףּ":{"ha":818,"x_min":47,"x_max":713,"o":"m 47 576 q 76 711 47 650 q 153 810 105 772 q 258 868 200 848 q 382 888 316 888 q 509 862 449 888 q 615 782 568 835 q 687 640 661 728 q 713 437 713 552 l 713 -334 l 602 -334 l 602 437 q 556 682 602 585 q 486 765 532 735 q 384 794 441 794 q 288 780 328 794 q 223 744 248 766 q 182 692 198 722 q 151 576 151 638 q 192 438 151 485 q 322 375 233 391 l 352 370 l 334 286 l 308 290 q 118 378 189 305 q 47 576 47 451 m 370 642 q 420 583 420 642 q 370 524 420 524 q 323 583 323 524 q 370 642 323 642 z "},"פּ":{"ha":795,"x_min":62,"x_max":733,"o":"m 62 576 q 91 711 62 650 q 168 810 120 772 q 273 868 215 848 q 390 888 331 888 q 499 872 449 888 q 593 820 549 856 q 667 733 636 785 q 715 605 698 681 q 733 437 733 530 q 715 270 733 345 q 667 142 698 194 q 593 54 636 90 q 392 -14 509 -14 q 171 0 277 -14 l 137 5 l 137 102 q 170 96 138 101 q 391 81 277 81 q 483 101 443 81 q 548 154 523 121 q 589 235 572 187 q 616 437 616 317 q 571 682 616 585 q 501 765 547 735 q 399 794 456 794 q 302 780 342 794 q 238 744 262 766 q 197 693 213 722 q 166 576 166 639 q 207 438 166 485 q 337 375 248 391 l 367 370 l 349 286 l 323 290 q 133 378 204 305 q 62 576 62 451 m 397 633 q 446 575 446 633 q 397 516 446 516 q 349 575 349 516 q 397 633 349 633 z "},"צּ":{"ha":763,"x_min":44,"x_max":701,"o":"m 694 0 l 51 0 l 51 87 l 424 87 l 578 80 l 578 83 l 353 389 l 44 875 l 172 875 l 434 454 l 456 423 q 535 528 508 454 q 573 720 562 601 l 588 877 l 701 877 l 687 736 q 684 702 686 730 q 680 659 682 675 q 673 614 677 644 q 663 564 669 585 q 648 515 657 543 q 627 465 640 487 q 597 420 614 444 q 509 348 566 377 l 694 87 l 694 0 m 163 452 q 212 394 212 452 q 163 335 212 335 q 115 394 115 335 q 163 452 115 452 z "},"קּ":{"ha":793,"x_min":109,"x_max":752,"o":"m 549 23 l 549 0 l 437 0 l 437 23 q 460 158 437 73 q 492 279 482 243 q 543 456 512 355 l 640 788 l 109 788 l 109 875 l 752 875 l 752 788 l 650 442 q 621 339 633 380 q 598 257 610 299 q 579 185 587 216 q 564 121 572 155 q 549 23 549 55 m 109 -334 l 109 523 l 221 523 l 221 -334 l 109 -334 m 381 510 q 431 451 431 510 q 381 393 431 393 q 334 451 334 393 q 381 510 334 510 z "},"רּ":{"ha":658,"x_min":29,"x_max":554,"o":"m 29 884 q 199 888 124 888 q 325 879 275 888 q 418 850 374 870 q 491 798 461 829 q 554 610 554 729 l 554 0 l 441 0 l 441 612 q 199 793 441 793 q 29 788 125 793 l 29 884 m 216 510 q 266 451 266 510 q 216 393 266 393 q 169 451 169 393 q 216 510 169 510 z "},"שּ":{"ha":999,"x_min":69,"x_max":938,"o":"m 450 87 q 681 187 589 87 q 791 493 772 287 l 826 874 l 938 874 l 905 493 q 877 337 898 405 q 833 225 856 269 q 774 140 811 182 q 691 67 737 97 q 578 19 645 37 q 432 0 511 0 l 142 0 l 69 875 l 183 875 l 224 386 l 314 416 q 434 604 418 450 l 460 875 l 573 875 l 551 645 q 538 562 546 599 q 514 485 531 525 q 473 415 497 445 q 410 360 449 385 q 319 322 370 335 l 231 298 l 248 87 l 450 87 m 545 352 q 595 293 595 352 q 545 235 595 235 q 498 293 498 235 q 545 352 498 352 z "},"תּ":{"ha":879,"x_min":47,"x_max":774,"o":"m 115 -9 q 47 0 85 -9 l 47 93 q 102 86 97 86 q 199 201 199 86 l 199 780 l 104 771 l 104 867 q 435 888 293 888 q 638 850 555 888 q 758 718 725 809 q 774 610 774 671 l 774 0 l 661 0 l 661 612 q 419 793 661 793 q 312 789 389 793 l 312 217 q 263 50 312 110 q 115 -9 214 -9 m 484 510 q 533 451 533 510 q 484 393 533 393 q 436 451 436 393 q 484 510 436 510 z "},"וֹ":{"ha":330,"x_min":91,"x_max":221,"o":"m 138 1089 q 188 1030 188 1089 q 138 972 188 972 q 91 1030 91 972 q 138 1089 91 1089 m 109 0 l 109 875 l 221 875 l 221 0 l 109 0 z "}," ":{"ha":361,"x_min":0,"x_max":0,"o":""}}}
